<mxfile host="Electron" modified="2023-07-17T17:57:35.500Z" agent="Mozilla/5.0 (Windows NT 10.0; Win64; x64) AppleWebKit/537.36 (KHTML, like Gecko) draw.io/21.6.1 Chrome/112.0.5615.204 Electron/24.6.1 Safari/537.36" etag="hs8rI5Zh0bLF5L_q0CKK" version="21.6.1" type="device" pages="9">
  <diagram id="wUAGac4CMDdCI46OtfdO" name="cover">
    <mxGraphModel dx="589" dy="818" grid="1" gridSize="10" guides="1" tooltips="1" connect="1" arrows="1" fold="1" page="1" pageScale="1" pageWidth="827" pageHeight="1169" math="0" shadow="0">
      <root>
        <mxCell id="0" />
        <mxCell id="1" parent="0" />
        <mxCell id="1G9fMNbrffu2OriVqxEn-1" value="" style="shape=image;verticalLabelPosition=bottom;labelBackgroundColor=default;verticalAlign=top;aspect=fixed;imageAspect=0;image=data:image/png,iVBORw0KGgoAAAANSUhEUgAAB9AAAAOACAYAAABi+eidAAAAGXRFWHRTb2Z0d2FyZQBBZG9iZSBJbWFnZVJlYWR5ccllPAAAA+ppVFh0WE1MOmNvbS5hZG9iZS54bXAAAAAAADw/eHBhY2tldCBiZWdpbj0i77u/IiBpZD0iVzVNME1wQ2VoaUh6cmVTek5UY3prYzlkIj8+IDx4OnhtcG1ldGEgeG1sbnM6eD0iYWRvYmU6bnM6bWV0YS8iIHg6eG1wdGs9IkFkb2JlIFhNUCBDb3JlIDYuMC1jMDA2IDc5LjE2NDc1MywgMjAyMS8wMi8xNS0xMTo1MjoxMyAgICAgICAgIj4gPHJkZjpSREYgeG1sbnM6cmRmPSJodHRwOi8vd3d3LnczLm9yZy8xOTk5LzAyLzIyLXJkZi1zeW50YXgtbnMjIj4gPHJkZjpEZXNjcmlwdGlvbiByZGY6YWJvdXQ9IiIgeG1sbnM6eG1wPSJodHRwOi8vbnMuYWRvYmUuY29tL3hhcC8xLjAvIiB4bWxuczpkYz0iaHR0cDovL3B1cmwub3JnL2RjL2VsZW1lbnRzLzEuMS8iIHhtbG5zOnhtcE1NPSJodHRwOi8vbnMuYWRvYmUuY29tL3hhcC8xLjAvbW0vIiB4bWxuczpzdFJlZj0iaHR0cDovL25zLmFkb2JlLmNvbS94YXAvMS4wL3NUeXBlL1Jlc291cmNlUmVmIyIgeG1wOkNyZWF0b3JUb29sPSJBZG9iZSBQaG90b3Nob3AgMjIuMyAoTWFjaW50b3NoKSIgeG1wOkNyZWF0ZURhdGU9IjIwMjEtMDUtMTFUMTE6Mjg6MzQrMDI6MDAiIHhtcDpNb2RpZnlEYXRlPSIyMDIxLTA1LTExVDA5OjMyOjI4KzAyOjAwIiB4bXA6TWV0YWRhdGFEYXRlPSIyMDIxLTA1LTExVDA5OjMyOjI4KzAyOjAwIiBkYzpmb3JtYXQ9ImltYWdlL3BuZyIgeG1wTU06SW5zdGFuY2VJRD0ieG1wLmlpZDoyNTBCMURGOUFBNjAxMUVCQTc0MkI0OEYyN0RBNzg2NCIgeG1wTU06RG9jdW1lbnRJRD0ieG1wLmRpZDoyNTBCMURGQUFBNjAxMUVCQTc0MkI0OEYyN0RBNzg2NCI+IDx4bXBNTTpEZXJpdmVkRnJvbSBzdFJlZjppbnN0YW5jZUlEPSJ4bXAuaWlkOjI1MEIxREY3QUE2MDExRUJBNzQyQjQ4RjI3REE3ODY0IiBzdFJlZjpkb2N1bWVudElEPSJ4bXAuZGlkOjI1MEIxREY4QUE2MDExRUJBNzQyQjQ4RjI3REE3ODY0Ii8+IDwvcmRmOkRlc2NyaXB0aW9uPiA8L3JkZjpSREY+IDwveDp4bXBtZXRhPiA8P3hwYWNrZXQgZW5kPSJyIj8+MtSBMQAAkeJJREFUeNrs3V2MXNdhH/AjVXHqj3hXTuIkTeIdpQELFCi4DvIQoG44AsoBNmjKVdGiRF84SluABYpyhTwkCGBoBQNNgbbg8iXlQ1COHlqwCNAsncAEOAE4TIyiLZpymTYxMnXspRLLsWSLpCVLoqxEvefuHXG52l3ux8zOPef+fsD1rvXFmXPPueec+7/n3Mfee++9AAAAAAAAAABN97giAAAAAAAAAAABOgAAAAAAAACUBOgAAAAAAAAAEAToAAAAAAAAAFASoAMAAAAAAABAEKADAAAAAAAAQEmADgAAAAAAAABBgA4AAAAAAAAAJQE6AAAAAAAAAAQBOgAAAAAAAACUBOgAAAAAAAAAEAToAAAAAAAAAFASoAMAAAAAAABAEKADAAAAAAAAQEmADgAAAAAAAABBgA4AAAAAAAAAJQE6AAAAAAAAAAQBOgAAAAAAAACUBOgAAAAAAAAAEAToAAAAAAAAAFASoAMAAAAAAABAEKADAAAAAAAAQEmADgAAAAAAAABBgA4AAAAAAAAAJQE6AAAAAAAAAAQBOgAAAAAAAACUBOgAAAAAAAAAEAToAAAAAAAAAFASoAMAAAAAAABAEKADAAAAAAAAQEmADgAAAAAAAABBgA4AAAAAAAAAJQE6AAAAAAAAAAQBOgAAAAAAAACUBOgAAAAAAAAAEAToAAAAAAAAAFASoAMAAAAAAABAEKADAAAAAAAAQEmADgAAAAAAAABBgA4AAAAAAAAAJQE6AAAAAAAAAAQBOgAAAAAAAACUBOgAAAAAAAAAEAToAAAAAAAAAFASoAMAAAAAAABAEKADAAAAAAAAQEmADgAAAAAAAABBgA4AAAAAAAAAJQE6AAAAAAAAAAQBOgAAAAAAAACUBOgAAAAAAAAAEAToAAAAAAAAAFASoAMAAAAAAABAEKADAAAAAAAAQEmADgAAAAAAAABBgA4AAAAAAAAAJQE6AAAAAAAAAAQBOgAAAAAAAACUBOgAAAAAAAAAEAToAAAAAAAAAFASoAMAAAAAAABAEKADAAAAAAAAQEmADgAAAAAAAABBgA4AAAAAAAAAJQE6AAAAAAAAAAQBOgAAAAAAAACUBOgAAAAAAAAAEAToAAAAAAAAAFASoAMAAAAAAABAEKADAAAAAAAAQEmADgAAAAAAAABBgA4AAAAAAAAAJQE6AAAAAAAAAAQBOgAAAAAAAACUBOgAAAAAAAAAEAToAAAAAAAAAFASoAMAAAAAAABAEKADAAAAAAAAQEmADgAAAAAAAABBgA4AAAAAAAAAJQE6AAAAAAAAAAQBOgAAAAAAAACUBOgAAAAAAAAAEAToAAAAAAAAAFASoAMAAAAAAABAEKADAAAAAAAAQEmADgAAAAAAAABBgA4AAAAAAAAAJQE6AAAAAAAAAAQBOgAAAAAAAACUBOgAAAAAAAAAEAToAAAAAAAAAFASoAMAAAAAAABAEKADAAAAAAAAQEmADgAAAAAAAABBgA4AAAAAAAAAJQE6AAAAAAAAAAQBOgAAAAAAAACUBOgAAAAAAAAAEAToAAAAAAAAAFASoAMAAAAAAABAEKADAAAAAAAAQEmADgAAAAAAAABBgA4AAAAAAAAAJQE6AAAAAAAAAAQBOgAAAAAAAACUBOgAAAAAAAAAEAToAAAAAAAAAFASoAMAAAAAAABAEKADAAAAAAAAQEmADgAAAAAAAABBgA4AAAAAAAAAJQE6AAAAAAAAAAQBOgAAAAAAAACUBOgAAAAAAAAAEAToAAAAAAAAAFASoAMAAAAAAABAEKADAAAAAAAAQEmADgAAAAAAAABBgA4AAAAAAAAAJQE6AAAAAAAAAAQBOgAAAAAAAACUBOgAAAAAAAAAEAToAAAAAAAAAFASoAMAAAAAAABAEKADAAAAAAAAQEmADgAAAAAAAABBgA4AAAAAAAAAJQE6AAAAAAAAAAQBOgAAAAAAAACUBOgAAAAAAAAAEAToAAAAAAAAAFASoAMAAAAAAABAEKADAAAAAAAAQEmADgAAAAAAAABBgA4AAAAAAAAAJQE6AAAAAAAAAAQBOgAAAAAAAACUBOgAAAAAAAAAEAToAAAAAAAAAFASoAMAAAAAAABAEKADAAAAAAAAQEmADgAAAAAAAABBgA4AAAAAAAAAJQE6AAAAAAAAAAQBOgAAAAAAAACUBOgAAAAAAAAAEAToAAAAAAAAAFASoAMAAAAAAABAEKADAAAAAAAAQEmADgAAAAAAAABBgA4AAAAAAAAAJQE6AAAAAAAAAAQBOgAAAAAAAACUBOgAAAAAAAAAEAToAAAAAAAAAFASoAMAAAAAAABAEKADAAAAAAAAQEmADgAAAAAAAABBgA4AAAAAAAAAJQE6AAAAAAAAAAQBOgAAAAAAAACUBOgAAAAAAAAAEAToAAAAAAAAAFASoAMAAAAAAABAEKADAAAAAAAAQEmADgAAAAAAAABBgA4AAAAAAAAAJQE6AAAAAAAAAAQBOgAAAAAAAACUBOgAAAAAAAAAEAToAAAAAAAAAFASoAMAAAAAAABAEKADAAAAAAAAQEmADgAAAAAAAABBgA4AAAAAAAAAJQE6AAAAAAAAAAQBOgAAAAAAAACUBOgAAAAAAAAAEAToAAAAAAAAAFASoAMAAAAAAABAEKADAAAAAAAAQEmADgAAAAAAAABBgA4AAAAAAAAAJQE6AAAAAAAAAAQBOgAAAAAAAACUBOgAAAAAAAAAEAToAAAAAAAAAFASoAMAAAAAAABAEKADAAAAAAAAQEmADgAAAAAAAABBgA4AAAAAAAAAJQE6AAAAAAAAAAQBOgAAAAAAAACUBOgAAAAAAAAAEAToAAAAAAAAAFASoAMAAAAAAABAEKADAAAAAAAAQEmADgAAAAAAAABBgA4AAAAAAAAAJQE6AAAAAAAAAAQBOgAAAAAAAACUBOgAAAAAAAAAEAToAAAAAAAAAFASoAMAAAAAAABAEKADAAAAAAAAQEmADgAAAAAAAABBgA4AAAAAAAAAJQE6AAAAAAAAAAQBOgAAAAAAAACUBOgAAAAAAAAAEAToAAAAAAAAAFASoAMAAAAAAABAEKADAAAAAAAAQEmADgAAAAAAAABBgA4AAAAAAAAAJQE6AAAAAAAAAAQBOgAAAAAAAACUBOgAAAAAAAAAEAToAAAAAAAAAFASoAMAAAAAAABAEKADAAAAAAAAQEmADgAAAAAAAABBgA4AAAAAAAAAJQE6AAAAAAAAAAQBOgAAAAAAAACUBOgAAAAAAAAAEAToAAAAAAAAAFASoAMAAAAAAABAEKADAAAAAAAAQEmADgAAAAAAAABBgA4AAAAAAAAAJQE6AAAAAAAAAAQBOgAAAAAAAACUBOgAAAAAAAAAEAToAAAAAAAAAFASoAMAAAAAAABAEKADAAAAAAAAQEmADgAAAAAAAABBgA4AAAAAAAAAJQE6AAAAAAAAAAQBOgAAAAAAAACUBOgAAAAAAAAAEAToAAAAAAAAAFASoAMAAAAAAABAEKADAAAAAAAAQEmADgAAAAAAAABBgA4AAAAAAAAAJQE6AAAAAAAAAAQBOgAAAAAAAACUBOgAAAAAAAAAUHhiWn/wpz7720vvvv3dE2+/cf9v/MU77/7I/bfe+dj9N+7v+nme+NBf+cuPzHzk29/z4e/51oc+/KH/88Rf/Z4bL33u7604jQAAAAAwHacXLrarX0c/W9Ux+n3ukH/EreK4W/0ef65Vv69V/3/98tWz684EAADj8Nh77713JH/QUy984TP337j/i2+//vbP3Hn57g+P87/98R/8vrsf/cRHB9/7se/99199/ue+6LQCAAAAwHhVQXmrOOY3HTM1+oi3i2M9PAjWB/H3y1fP3nX2AADYq4kG6I/9/f8w+6N/86/9uzsv3/3Hb95982NH8YU++uRH3pr9kdn//KGPfuhzX/nswm2nGAAAAAD25/TCxdmwsaI8HjEoP5Hw17kXNkL1QfVzbZor1ouyfS+x8nu6KK+BVgEANMVEAvSf+NzVuTfvvPnit1567Wfffefdx6bxxZ740BPvff+nPvG7f/kXf/mvXrnwj/7AqQYAAACAnZ1euBiD8nZxLIa0A/O9iKH6IFTB+lEGxAJ0AIB6G2uAXofgfDs/9JOfvPGRJz9yxop0AAAAAHjg9MLFVvFjKWyE5nMNL44bxbEaNgL1tQmWuQAdAKDGxhag/9gvX/n1b3z5lV+oU3C+WVyR/oNP/cCVl//tM8847QAAAAA02emFi92wEZwfVxrbiivUyzA9/hzne9QF6AAA9XboAP2pF77wmddeeu23vv3q67MpfOGP/+D33f3Epz7x8199/ue+6PQDAAAA0BTVavNu2AjOZ5TIvlwJD8L09UOeBwE6AECNHSpA//Ff+fyv/vnwG79U11XnO4mr0X/oJz/5H//s35z6Z6oAAAAAADmrgvPl4jijNMbiVnGsXL56tnfA8yFABwCosScO+i9+8txv3Hz1q9+cT/FLx8D/a3/08j/9gX/5X9o/derTP33t5LG7qgIAAAAAOTm9cDHuGBlXmz+vNMYqbnvfUgwAAHnad4D+E5+7Ovet9W+tpbJl+26+9dJrf/2//af//o2f/tPX/u7/+oWf+T3VAQAAAIAcnF64GIPz5WCr9knpKQIAgDztK0CP4fkrX37lS9+58+aHcymA77z2nQ8Nv/j/fvfvfPzDv/J7//D4r6oSAAAAAKTq9MLFuGNkL2yskmYybh32PegAANTX43v9B3MMz0de/+Yb4dYX/uBftz//f7/Y6Q9nVQsAAAAAUnN64eJy8eNmEJ5PWk8RAADka08Bes7h+UgM0f/36s2//d37797u9IdtVQMAAACAFMR3nRfHIHjX+VFZVQQAAPnaU4Ae33mec3g+EkP03/+vv//x4tfrnf5wRfUAAAAAoM6qLdvXi+OE0jgStm8HAMjcIwP0T577jZvffvX1xmxrHkP0P/ydP4q/nuv0h2vF0VJNAAAAAKib0wsXu2Fjy/YZpXFkeooAACBvuwboP/4rn//VV7/6zfmmFcrLX/p6eYSN90XFEL2rqgAAAABQF9X7zi8piSNn+3YAgMztGKA/9cIXPvPnw2/8UlML5o9/dxje+vbb8df4BO+lTn/YK45ZVQYAAACAaTq9cLEXvO98Gq7Yvh0AIH87BuivvfTab737zruPNbVgiu8+2sp95EzYWI0+r9oAAAAAMA1VeH5GSUyF1ecAAA2wbYD+Y7985deb9N7zndz52p3w0tqfbv5Lc8Vxs9MfLqk6AAAAABwl4fnUCdABABrgAwH6T3zu6tw3vvzKLyiaDX/yP74S3r3/7ta/fL7THw5s6Q4AAADAUTi9cLEbhOfTFLdvv6sYAADy94EA/c07b77Y5K3bt4pbuccQfRsnimO90x+2lRIAAAAAk3J64eJi8eOSkpgqq88BABrioQA9rj7/1kuv/axiedhLt/40vPXtt7f7WzPFcb3TH64oJQAAAADG7fTCxfniR09JTJ0AHQCgIR4K0K0+39lX/udXdvvb5zr94VpxtJQUAAAAAONweuFifH1gL2ws4mB6bN8OANAg7wfoVp/v7pU/eXW7d6Fvdrw4YojeVVoAAAAAjEHc9fC4Ypi6niIAAGiO9wP0d77zzmetPt9ZfBf6y1/6+qP+sfg08KVOf9grjlmlBgAAAMBBVO89P6Mkpu7e5atnbd8OANAg7wfod79+958ojt29/KWX9/qPxslNXI0+r9QAAAAA2I9NW7czfcJzAICGKQP0p174wme+c+fNDyuO3b3+zTfCW99+e6//+Fxx3Oz0h0tKDgAAAIB9WA7ee14XAnQAgIYpA/T7b9z/RUWxN69+5dX9/ivnO/3hwJbuAAAAADzK6YWL7eLHOSVRC7ZvBwBooDJAf/v1t39GUezNK/sP0KMTxbHe6Q/bShAAAACAXSwrgtoQngMANFAZoN95+e4PK4q9ufO1Owf9V+O2W9c7/eGKUgQAAABgq9MLFxfDxkIM6kGADgDQQI9/6rO/7R3d+3SIED061+kP14qjpSQBAAAA2MTCi/q4bft2AIBmevzdt7/rqdZ9eu3P7hz2P3G8OGKI3lWaAAAAAJxeuNgtfswpidoQngMANNTj77z1zt9SDPvz+jffGMd/Jm7pfqnTH/aKY1apAgAAADRaVxHUSk8RAAA00+Pffeu7368Y9ufd+++O8z93JmysRp9XsgAAAADNc3rhYjt493mdxO3b1xQDAEAzPX7/rXc+phj255DvQN9O3J7rZqc/9D56AAAAgOZxT6hebN8OANBgj99/4/4TiqE2znf6w4Et3QEAAACa4fTCxVbx45SSqJWeIgAAaC7hef3E7brWO/3h4rWTxwaKAwAAACBriw38zreKY704Rtuk3930+0hcYLL1lYft6mcrbOzoOAm2bwcAaDgB+gHFbdyf/NEnJ/WfnymO653+8MK1k8ds4QUAAACQrybc+4mBea841i5fPTvYx7+361bq1er9eMxv+hmPmUN8Vtu3AwA0nAC93s51+sN28TOuRl9XHAAAAAD5OL1wMYa9c5l+vdthIzTvXb56dn0Sf0D1343HYEu5tsKDML0dNnZ83KsVNRMAoNkE6PV3vDjWOv3h0rWTx3qKAwAAACAb3Qy/073iWLp89WxvWh9gU7D+/mry0wsX22EjTI/HToH6rUmF/QAApEOAnoa47dSlajV6DNLvKhIAAACA5OX2/vMLxbF8+erZ2t27qraOj0cM0+P71dtV+cefo10AeqokAAAC9LSciYP6Tn8Yt3RfUxwAAAAAacps+/a46nxxn+83n5oq4F+tjtG56AbvPwcAIAjQUxQnVjc7/eFz104e804mAAAAgDS1M/ket4qje/nq2WQXe1SffUmVBAAgelwRJOt8pz8cFMesogAAAABITg7bt8fwvJ1yeA4AAFsJ0NN2ojjWq3ejAwAAAJCOE4l//rhte7eO7zsHAIDDEKCnb6Y4rnf6Q9u5AwAAACTg9MLFdgZfY9HKcwAAciRAz8e5Tn+4VhwtRQEAAABQa+3EP/+Fy1fPDpxGAAByJEDPy/HiiCF6V1EAAAAA1FY74c9+uziWnUIAAHIlQM9P3NL9Uqc/7BXHrOIAAAAAqJ35hD/7sveeAwCQMwF6vs6EjdXo84oCAAAAoB5OL1xshY0FECm6cfnq2Z6zCABAzgToeZsrjpud/nBJUQAAAADUQsqLHXpOHwAAuROgN8P5Tn84sKU7AAAAwNSlGqDftvocAIAmEKA3x4niWO/0h21FAQAAADA1qQboPacOAIAmEKA3S3y/1vVOf7iiKAAAAACmopXo5+45dQAANIEAvZnOdfrDteJoKQoAAACAI3U8wc986/LVs+tOHQAATSBAb/ZkLYboXUUBAAAAMHmnFy62Ev3oq84eAABNIUBvtril+6VOf9grjlnFAQAAADBRrUQ/98CpAwCgKQToRGfCxmr0eUUBAAAAMDGtFD/05atnB04dAABNIUBnZK44bnb6wyVFAQAAADARrQQ/8w2nDQCAJhGgs9X5Tn84sKU7AAAAAMH27QAANIwAne2cKI71Tn/YVhQAAAAAY9NO8DOvOW0AADSJAJ2dzBTH9U5/uKIoAAAAABprXREAANAkAnQe5VynP1wrjpaiAAAAAGiWy1fPWoEOAECjCNDZi+PFEUP0rqIAAAAAOLD5xD7vPacMAICmEaCzV3FL90ud/rBXHLOKAwAAAGDfZhL7vFafAwDQOAJ09utM2FiNPq8oAAAAAAAAgJwI0DmIueK42ekPlxQFAAAAQLYGigAAgKYRoHMY5zv94cCW7gAAAAAAAEAOBOgc1oniWO/0h21FAQAAALC90wsXW0oBAADqT4DOOMwUx/VOf7iiKAAAAAC21VIEAABQfwJ0xulcpz9cKw4TQgAAAID0DRQBAABNI0Bn3I4XRwzRu4oCAAAAAAAASIkAnUmIW7pf6vSHveKYVRwAAAAAAABACgToTNKZsLEafV5RAAAAAAAAAHUnQGfS5orjZqc/XFIUAAAAAAAAQJ0J0Dkq5zv94cCW7gAAAAAAAEBdCdA5SieKY73TH7YVBQAAAAAAAFA3AnSO2kxxXO/0hyuKAgAAAAAAAKgTATrTcq7TH64VR0tRAAAAAAAAAHUgQGeajhdHDNG7igIAAAAAAACYNgE60xa3dL/U6Q97xTGrOAAAAAAAAIBpEaBTF2fCxmr0eUUBAAAAAAAATIMAnTqZK46bnf5wSVEAAAAAAAAAR+0JRUANne/0h4vFz8VrJ4/dVRzANJ1euNje8pfiThmHeeXEYMv/X7t89axrHRysTe63Pa4Vx6i9rRdtb12JQtmuWsWP1iH7urtVGwvaGOy7DW5tc1vb5H6sV8f7bbNoi2tKGYApjCkP2p8ZVwIwdQJ06upEHBzFIP3ayWMDxQFMYGIXb1LOb5rQbZ7YnZjgH/38Np9l9Ovt8OCG5+jaNwr8BO00rW2O2ucoVDg+gT9r9OuN8OAmTWyD8QaN8Qc5tatRO2pXP+ePoL/b2sY292mxfQn1aGL7C5t+xj5u7og+w+b/O2qP61sP4QQAe5intbYcE5mr7WNcuVb1YcaVAIzVY+Hnf+09xbB/P/0Pfio8+aNPKoijceHayWO2dQcOO8lrb5rgnUj4K90KD8KH9SDoI/022q7a56idztSsva1V7W0gWCChNrX5IZS693mjdlYe+jQSbnutTW1v1P6OJ/hVblVjzFG7FEqM/xp9PbGP/bRr80TqwnvqAQmMJzf3bTMJfPTNfdggWIgAwCEI0A9IgD6VAVBcjb6uKIBHTPRGIdxowjfXkK9uokhqbTS+riW1h1luV+0rHqvaGDVpU+1N/d6JTL7WjfDgwZWBs0wCbS+VYOGw7XLzwy5C9f3Xmfhgb1wc8HxiH11wOpn6IECnTtemzf3Zicy+ooeiATgQAfoBCdCn4l6cbF47eaynKIBNk71W2AjiRhO+GaXyvlHYt1ZNFN3oPHx9WwkPtj6ug6UUzmsVmnertprTQy1XimM1CNOZTr+X4kMoh2lrg6qtrasFTLEvG405TyiRcn6+OZAYKJJd685SVX9SnKuMdsBKXlFP2zWqFwJ0pln/Nt9DOd6wr3+7msPFvmtVbZhoPavb/ZO96BX1oufsNboO1HbskEF96IaNe4PJEKAfkAB9ql4MG0G6G9XQ3A43Dl5G4cGcEtmzeKNzEB7c6BSo77/uxbKr003z54rzuFLTspqtBsZLDWmnZZhuss2E2lOrakux/zve8OKIQU4vCNM5mn5sFDCkGnxOoy8caJ8P1Z8l1+36KOrlYzWqIwJ0pnFNGvVr+rQN8R7J6IFoYfr46128V3EusY99Q2A61uvOnQy+yjOuD2OrE7EcTyX0kW8/4bSRoDNxsNfpD+OW7sIfaE4nm/rKjTqYqQYqp6oyHU0WB8FWZqmKE7uVmrXV+Jm6VX/dJGXbqm4SxKOnTTGGGw7d6hC+PBDL4nw8ijKKW0r3gl0gGG/b61bjzVNK42B9YdU+Ryv8VpsUupmzADUbSy7q03Y1U81bz2y6PyJMH59YjqkF6HYZGp92Rt/DNaGZdWLVCvQDsgK9Np67dvLYimKAbCd8rfAgPLDSfPJubZowekBp+zo5qNmE6l5xrmZrUjZxILxswvmQuGvOsiCdA7Sl2O+dURp7vxZW/Zf2xkHbndDzaNpolqGE1ebpsAL9UKxA16c1SXwIrBc8FN3Ea53r3fjOfS+TOe2toj7MO6Nj6ZtuJvaxnxGgH5AAvVbiypNFW7pDVp1qOwgP6jBhXK0mjML0B3UzTqLqFhB/eprnSHC+J4J09tKWYr8nfBnP3GDZTS/20OZGoWfswzyoeXRimN7LYYwppEqPAP1QBErGkk2ey/XU/wPXy9S2bI5eKM73srN36HO/ntEY+yn3cw5dH2L/dD61caMt3MlBvGG/Xm3pbjADJnyMRxzkxq22zm3aglOYXk/x5u3aFNpr/HNXguB8L0bbAsabL0u2mmZTOxLgTWZucH20vXvR3nqKhC3trlWNN+O4U+h59Ga2jDFHrz25m0j9sdocqNs1aak69GmTnct5SPNgYnmlFqC3nbZDX5vmM5vfxjphXtmsdnUl/o8AnZwm4dc7/eGFayePLSkOSG5g1Q3CgzrbGqbHG52rnr5s5kC+ukmzHNJ7l1kdxJsvi/E96Z5op+r7VoKbnZMSg/QTozGGm51UwflysMNR3caYcSXK+eohs9qu8LPaHKhhn+ZhsKMfW14XpO/bakhs1WmwSGAc2hl+n57TeiipPUhTXuNt4X5AtnCvtfgO37gafV1RQO0nfaMBiOA8TfFpvNUmre6r6RbuR/Y+puL7L1Zt1k2aw4sPo3TdeGlk39cNHhqbhnizc8lOKo1sc60gOE9tPr9Sh/Gl1eb5sYX7odjCvR71xorzeo0tBel7q7frCc59XPMOd85j2eX0IMK9oj7MOrMHrg/t4sf1xD52+bpMAfoBCdDrf1GLg8lrJ4/1FAXUsuO09XN+19x4vV3JfVV6jScBT05y69PqRk08x6dU97G7EDZuvNjWXd+HNsf4+67lYMeUVMUHzXrT2LHFavN8CdAPRZg0/TqzHATndRQXFizZoW/XuhvvJaT2IOOF4pza5fbgY/A7GX61T3sY+1D91/MpzUOKc92Kvzzu9JGpOJi81OkPe8Xh6SCo0SAqbl1c/HozCBByu+bGm9NfLc7varVKmaM1P8F22y5+xJsBwvPJiG1nrbpZj76Po2lz6/qq7NvdUtV3Cc/TFVeqdY/4Wt0tjrXqen0mCKmAevRpi9UK3uddl2opzpPjvZDlKjjkg1YT/Mxtp03ZbWH+2Jw6MRj9IkAnd3HSu9bpD92UhulP+mJnGW9IuZGZ/+TxN+MEv7oJaQKZ8GC0eko0brPkRs1kxZDgZhX4kFffFyfZ6/q+2pmp+qpV/VR+480qAD2v78rCyhHUmflqZVy8Vl8KtmoH6tOntaod0H4zePVPCuIDDmvVvS8eNkjwMx83TziwXINmbfvgUltI8P5DPwJ0mqC8Kd3pD92UhulM+kYr766b9DXu2htvQq5bWZveQL5qt6shrS2WcnBeoJdV3xfbULzhKcSrr1PBavQcx5sC0HysTrC+WG0O1Llfi/cw4zXK7kVpifdBrpvTPax6ddKNBD9629lTbpuc0K4P1J+lONcejH4RoNMk5zv94cCW7nCkneR81elYedds64pg4ubH2G5bVbu1Zft0xHIfePAk6b4v3jBY04aSMVqN3nNDJPk2Z7yZlyvjfp+s1eZAAn3aaNW5nVTSn9OtW43+kEGCn9n5O8BYK+S9eEqdyL/MblUP/ZQE6DRNfHJzvdMfutjB5AdN3WqA7MZUs61uHngwMTPjCFyr/8aadjt1sfyF6Gn2fcvBjiupOqPdJdnm7HKU8RhyzHUl3gOw2hyoc5/WDVadZzVHDxur0VcUxfj79SPSdtqU2RZ2Lsu/Tjx0rRKg09gBTKc/NICByU38Yvu6FNycIoRlRXBk5g/Zbkc7Rmi39Rmv3KxupFH/fm+2Wi3ktQdpGz284sZI/dtcq9p+26rzPN0Lad5oBzjoOLIX3EPJ1bk4Zql2emusy1fPrlX9e1JzAztU7Vvu86i2U7y//i2kt0BHgA6jAUynP1wrjpaigLFO/GJH42Ym0Y1xb73JruYP0Xa7YWNVlhs29XNJiF77vm+0c4PVQnkYbem+pChq2+YWg91ScmcHI6BJ48hB2Ngdg3zFMcuaLd2tQs/8ejbbgDnxXNMfhsm8/dyrHvZ5nwAdA5hiANPpD7uKAsYyUIoTP+98ZcROHwkMTKtw9pLiqzUhen37vsWq77N9dH7OV6vBqFebWy5+/GbwwFfutD2gSeNID4Q1w2hL9yY/pDlI8DO3VV1ltYXdyvKtEx94yEeADhsDmEud/rBXHLZlgYNN/GZN/Nji9uWrZ229ebSOH6DtxhUPwvM0CNHr1/fF8yHIy9uZuLOOrRtr0+Z6wWsSmjKGHCgGwDiSTDX5Ic0U+/e2KrtnTQmW1Yl8y+oD1ygBOjwQt0uKq9HnFQXsa+InPGc7PUUwlfbY3sc/O5/oBLbJhOj1aWtxhw0PnzRD3FlnIESf7lizet+57W2NIQFy6Nd6xpGNFx/SbNz4snrF363EPrb3oO9du0HzQx7d17VCelnBYOtfEKDDw+L2mzc7/aF3HsLeOkPhOTuxfXuNJyybwnMrHtIjRJ9+39crfpxTEo0SxzlCdGNNjkZPEQCZjyM9EEZ0oqHjy0GCn9mW3Y++tsV7THMN+r5tZ/2RUiujW9VDPg8RoMP2znf6w4Et3eGRYkjqhiZbvVgMOu4qhql45C4q1QS9F4TnSV97qwkqRz9Rjm3HTc9mEqIffXuL17l1Y81GubHdjSuADPq0uJvKwDgS48uQ4qv+2qqqMtrCQxX51YnBdn9RgA47i08Crnf6Q50kbD8BXDb5YwdWn0/PXkLV1SCMSF18+GEgRD/yfq+n32s8IfrRtTc7pTRTTxEAGfZpo91UTigNdhhfrjdlbnf56tlBgh+7rZo+UtMCZXUivzLa9uEeATrsLt6wud7pD4VB8PAEMA6MnlcSbCOuHFpTDFMzt1uwU7232Y2bfMYoPUHekfV7vSA8Z0MZoiuGibY34XlzrSoCILM+zatI2OvcrkkPSF9J7PPOVe9zZufrXNPuMx13L2bXOhHbS1Jb+u/0cI8AHfbmXKc/XCsOnSU6wQfbP8N21I3pa+/QduODL97bnNmkTZs7kn4vlrHwnIfaXlUvGH97i/OtQRCeN5FXAAG59WnCc/Yjjn1WGxLKDRL8zG1VVNlsYRv3fOrEjg/1CNBh7+KAN4boXUVBw60GNzXZ3u3LV8/2FMPUfeCp9SqQcG7ydKp6pQYTUJTtUhCes70z1a4ejK+9zRpnNn6OAZCTOE4QnrMfccVmE14XNEjwM7dVzx01NUhWJ/Ipmx2vSQJ02J94M+dSpz/sFYdtOmicKkiw/TM76SmC2g5Ue0EgkbPni+uzydv4+7xu8eO8kmAX56p6wuHbm1V6zRYfwhSgAzn1a3H+5SFMDqJ8XVDOIXr12r/biX1s821ls5UV6PmUzY7zEAE6HEwcBMfV6POKggZNAOPgfVlJsIueIqiF+S1tN7ZbD77kb9U7uMba58V2dElJsAeXGvS+ykmPIYTnDe7DFAGQ0Tgyzr+E5xzG8Qb0jYPEPq/3oO88b55r6NefMQ/csU6ktIAnPsi7vtPfFKDDITrO4rjZ6Q+XFAUNsRKsYGVnL+424GA6g/jq5/OKpBnnPXiIZVwTvlZIc1tBpmfgAZZDtbk4xjylJBo/zwDIoU/rmn8xJieqnQxyleIDAm3VUpn4/tmVyWC3vylAh8M73+kPB7Z0J/NJYCt4gprd9RRBvc5H0W4HwYqupjlVvWqDg/d33sHMQcy43h64zXWLH+eURKPd8hAmkEmfFh9e9kAQ43Qm4/ndIMHP3FYlP2DR9yfxdrLrPF6AfkBf+8OX/3lI710dTE7cGne90x/qSMnVsiJgF/HG50Ax1Mrxqm+aUxTNu17bWu5QVoJtpDngfKDaspU9EjSw6boLkHqf5iFMJuV8Ub/auX2py1fP3i1+3ErsY7dVxw9c95r+usATdiJLvp0MdvubAvQD+vof//mXw8Y7Rq8oDSpxkHy90x+6AUBuA6JWsPqc3bnuQb3GIz3FcKD+rqu/K90rjhvVcaE4XnjEcWHTP3+v4WX3vPfg7bm9zVbXKkEDdm8AcrmWeXiZidWvTB+STm0MMGes/5C2IlAOW+Z4qb3//Eb1MM+OnnBaD+7ayWOxcBc7/WE3eDcwD5yrVqIvFnVkXXGQgeUGf/f4NGy81q9VP6P16tiLeHN4fpvfc3pC814x2OhpJlAr8SnoxaJtCiX2N9Fr4sNAt6o+rjzGtZtItUpmftPRpFX98Qbn/KMm4tjtgdIVbQXIYBy5HKzCZLJmqjFmO7N+M85Xn0/sM7eruRO2L99cJ9x7eVAWqV2DdiVAH4NrJ4/1Ov1hvHD23ASgEuvBWlEvlmL9UBwkPBGMoW8TVuPdDg8ChEFxrI/xXYyru5RvHFi0qmP0e2pPrVt9DvXUi6sUBBN7L6/QjIdh71X9UuzrVidVP6ogfrCpvxv1c/Emy6nMyzj248vFsaRZ7Tj+WQx2e+DBtRcg5T4tjm+eVxIcgXivOd5/6ebyhYo5w1rRhu4lNg9rB/fBNpcFG3Ncc78HZZGSwaP+AQH6mFw7eSyGLvPV9t3nlAhV53+pWo2+VO1YAKnpZvzd4is4yhBhjGH5ficLg20m4KOV6u3wYOVenUP1nmbCIcQtn0e7PITw8G4P0d04qd6mfYy0thxWfjw8Dlk2kXu0ol41YSVs7PN609qVoOpnY3/Rq9rxYjXGyLXNniu+Z2/z9Yv321vL2OHQ/WY0m8F1656dUoDE+7RZfdoHxMUJ65vmdethyw5+W++DbPN+7/mqnxvN8VLbEniSzhTltZpZ/xnrQ0oP2LZVw/d3cPPaig1z1eKFdUWR1Pz+3l7m6wL0Mbt28thSpz8cBO9zY9PgJnauRb1YrB60gJR0M/s+N6rr82pdV2VWn2sQPrhybxSqx6MuN0xfNEBkrwPT8GCHh3gcaJeHTe1jt4lca1NbaTd8UhdDvBXtdNf6EuvIuYzbXXw4oFenOlC149gX96r2uhzyXI3cCw8/8MODcjFPftgobBj1b6Ofa/sZr1Y3MmfDg9cGjX7WNXjoHfGfF8chT9fge8fzcT6xOvpcsF0t7HQda/Jc43bVZx3qVUDb/HuDbfq4rQsN2g0eT/Sq1wXlMseLDwOkFKDPVOXf9H6xrQt4yGJo+M4E2zwMlcK155EE6BNw7eSx1U5/2KpOgpVQhGpAfbOoF88V9cM2L6TS8eX0ztIYnC+P692uR62aGK2POvdNq/faYboBYU9LYRe3qjq7epSTy80rXTddy0arXZt4g6tncrtjP5frqqFRcL5S9y38q/bard4dGo+cgvTjxfdaKr6jsf+DNtc1P36ofywfLBtXO93S165uc72b33JMe5x/pNffvTyEd0TtIMU6u5bqPAom2Jab8Fqa7UxlJ78dFhqM5nmLoVmvVJ3JbI6XYv/SDh4s8/7zD9aJFWWQ37XnsfDzv/ae+n0gT7/3+X/xyELu9IfLwbtweFgM8hZt6U4CE8Icrl/xiehu7jd8qoljHKh0j3DieLso11YD20WsS27+797m4mS+V8cn4qsnYmM7adq7d5924zvbfm6rF4tjqe7B+SP6s17I5yZofJihler5GPO5jQFu7BeauFos1oMybAg12wWp6hdHx1GOb24V5TDf0LYQy/q6cQRFXXhPPdCnJSI++LUSaryTX7WrUXx1VQz1mvLQ9HO5PKhZnL+1xMb/V4qyb2yAXF0D7+gNHh7vF3VituF94yCkdb/0yb30aVagT9i1k8eWO/3hajVh9l4IQnUhWa+2dDf5oM5SHwxeCBurzrO/aV2tOIrHyqbV6ZN+In5ZE2GT+HDYSt3fxVbd9Btkutr1Ue21rZo+NLmLwU1O4XkWD4xV/dl8XLld1dvUb0zHzx9vbHa1urIcmhaep/DqoLJf3HRtbIejCdR7mgSQ+Ni6CX3ai9Ucr/YrbauHt+P4cana8aYb8n/wfbl6H/p6Bt8ljkVSCtCbPrd2b2GbeV8cRzf8QbOUrrm39jo/e1zdnrzqvdfxJt0VpcHooloc1zv9oS0dqaUqhE159dezRUe41MQVX/E7F0evehr2yeJ4ppr43hvjHzNaSQUxHIirUdp1D8+3tJP4DvZu8etTVfvIfiKT4PuoJi2nMVh8YGw+p8l6tZom1tlbGXydM9WqqCaPK+O5bNLOH7Ff+XTVN/ZSGo/G60hxxAdQ21vGkbfH/Ef1dENAwn3auQb0Y0/F+VKK73mu+t54np6u5qu5msloTpPaPGameiC7qWzfrly29o2pffc9X3OsQD8i1Xbdi53+sBua+fQ92ztX1Ik4qIur0dcVBzXSTvizx/C85xS+/56wcheUMa9M79mOtvFyWe0a+974/uV4zYhHzrsFLQdPio8md3E8nsOKlHtVO8zygaZ4w7a6SR3nTmcyaH/dBje7pjw0HAOH5UxWgj00jqyunfNVPT7s9rhXjCMBfVotxYVfSxn1Y3Gu2q7G/suZzvVOxeAq9flA/PzF90jtY8d5SlPfg+6+gnJJ/bvv+ZppBfoRu3byWC/ks5qC8YirfNeqhytAx3c4wvOdJyRbV6Y/Gw7+NLbdM5rthaIetTJb7Rq/SwwGLmR83qxCD+/vsLKcwVeJc4l2ruH5lr6rm0HbbOwq9Oqm9fHMv2YcT326Wqm3nnF7XKt2eIp1Oe7g8lw42H0NuxgB+rR6iQ9lPhPvFeTYj1X3iHKe641e5Ze61HbubeTcunqgcq4mbfuxajxaF8czaYu5t4d7+7mfKUCfgrile3HkfpOW/Yk7Elzq9Ie94phVHNRAilsRXRGe73mQeXfTtmbxBugLYe9bc17J+eYwu4o3yWNAsJxxu4jvzYvb1d7L9Bwuq8bluxHnMmiL7RS31DxE+4zn7Vntz/eumdhXPFtt1d6oFUjVq1Die3Hnq7HkhT2OJe8ZrwMpqkKRHB8kj6FlqyEPZcbx5NNh/K8lmba5ao6TukFin/dUaKZ2TT7HjZrWm8Zt457ga2D3VWcE6FN07eSx3G/Ssn9xe8q4Gn1eUTBlqW1tW25j67QdaCK5Xr3rslVNJh/1Pmirz5sp1otGBATVzaM4Kbyd4dc70eR3tVUTu9RvLo3C88Ztf1yFbimH6I1bhV583+WQ76sx4k27ljD4/bHkaGX6p6sxw073OKw+B1IVx5C5vY7zuWrVeWPGlZt2HruSW/3MYJw5SHCs227gtbAuAfFa1abrdo+qiXUite+8r/mIAH3Krp08Fk9YKxx8G13yE28y3ez0h0uKgikNAFMcdK94l+J4JpPVVrlxi/e4DdLWAPF2Ttt2s2fPVdvSNunGSpyExRsrOb5yp8nji+WQ9o3Pxobnm9pmL9Rrm76D1MGmjCdzeGBlJy9Uq86NPbfpP6sxQzz/cbHA1oDCg5iAPm364kNOcWexRl6Tq9XoMQR8IaOvNZP6OLOag6f2EHu7gdfCuiy4Gmz6/YY64TsfsO48kgC9Bq6dPHa3ONqZddwc3vlOfziwpTtT0ErwM7sZN/4J5co2q9KVc/M82+QbK9VEILcQvZHvYq6+87mEv0Ljw/NNbXMlPHq3lDq3v6aM7XNcqTd6R+yy4cGe2upqFVCM3pd+pWlb3QP6tJr2ZW3X47Kfiv35sxl9pTNWoR+5dsOaTZ2+71pN681cA3f9S6kd3N7va0kF6DVy7eSx2HHHLc9uKw0q8amu9U5/2FYU6Ph2dEWgMNFJ5eZV6T0l0ijPNn1r2oxD9G4DT+dywp99dKNTX/egbcY6nOoOXtnvApHp6vNRO7QF+f7b6+h96YtKA9CnTVWc07SE5w/1UXG+m1OInvr8PbVx1omGNZm6jOXubQlBBzUrp3aD+shWSOv95/u+xgjQa+bayWOjLUOvKA0q8SnX653+0MpP2N5AERzJxPKu8KZRnvVe1wd1P+T3TvRuk85hdePzTMJfQXi+vcVE22W3Iecmp9XnVusBNFcuq889kLnzfC/Oe3MJ0U8k/l7uQYJzzXaDmku7pvWkbmP0RXUin2uMAL2Gqi3dF6vO+54SoXKu0x+uFUdLUTBhqW0142YmjNcLwvOHVTeaFjMal8VtxZo0qUt51dCzQrtd22VX+6ul5Yy+i/AcoKEyWn0uPH/0uDLOf3MJ0ZcSPg+xjqa2+1u7IdfDeK94riYfZ63m9aZJOxMkVf8PspuYAL3Grp081gt5bhvKwcUtMWKI3lUUTFBS7+aMW4w7ZTA2V7zbdcdrTZyk5dT/NmIskfiNzyseZtnTGOCC9lerNhe/21wmX0d4DtBsuaw+X9SX7WlcGcfdz2XwVU4l/i701LZxbzekidTpew62+Wu1usY1aMFCSvX/QK+AE6DXXNzSvTjiEz4XlAaVOHi/1OkPe8UxqzgAGJO4FXJXMeyselo1lzHZqSpczl03pHnj8572uGfLIb2t3FO/sfmoNpcL4TlAs+XQpz1n0cG+5nvx9ZkvZjI+TlVq9bUpq43rFAivJVBv2rlXiGo+m9KD0wd6OEeAnohrJ4/Fpx6fCbZ054H4Ls+4Gn1eUdBgduiA8ena1u/RijJayuja04Snope0x+zb5N1Ez3N27a/a2jGXm4henwDQYJnsqHKlCoTZ//wh9fnemVQf1qwe+Egq/8j9PejVg/d1GePf2mGePDDXO3Kp1fsD1REBekKu/X/27j/Irus+DPtZEKT4Q9RCbi1LlVMsa83GGikB6EwjTcURnqwAKazIAKadESb9g4skM102niGYPxIxbYbLGU8lTich2CYVMnHDhVuPlrFbLlxTm4JJ+FahbMmuxUVciy5tWruRNaIt1cSKlEmRALbnLO4j3i4XwP54P+459/MZX78lRC7u+9577jnnfs+Pg+NplESq/OZFg0pqzD936OkXTgoFDSW5AL3xmJkJWzJRyPcouv1QLZuW44vP+e3szdVkVbxy6yNNFHgpSnmmPGb7BADt/czP32pG229XXqhit+weHpp2ZudberK0VaNzWbhGuV2sWZndW/CKYzne90vbHRwtgZ6ZcwfHL8QjPbQeFg26PHro6RfalnSnRw44V2iUtPTxlDBsXtXwLqEttq/wTt2E826UKeVveKqZKSW8PDxfrTQCQENV9XPu7xqsZrTz/l7ufeSc2zP2Qa+XOrXx29v839wXzf5+2743JNAzde7geKrE7w757fdH/6TG/eKhp19oCQUAWzDl5crWxZiltlgJS7kXOVq+evF5JMNTf6waPc/Wy2TqFM8rf0P9LqMFfI8JpQmg8XIfSGU1o960LU+FvFeBHa22IshRO7Pz3VcNJi1Vq0bnsrDN/01fr4eqrbty6vttu06UQM/YuYPj6aGQbtazokGncRSPZw49/YI9jtiJrAbmNGBJHOin85ap3ZESZimW2qnL8XulJeemFKsdyS1+EwXFvoTv8rB9zwEooE6bcAnFMufzrwYU5zZpsFViAagSpXtrdG9cr63edk/4br2+NyTQM1ct6Z5eEJ4I+e/NQu/cf+jpFxbiMSYUbMNiZue73yWDbbNM7c46b6kRnvtAxgOFjpbP8d4+ZTWInpTJnFaGKGK2SiFL3Z6vVhYBoMFinZb7iipWM+pt2zLFMuetuw5kPOnEMu6+13rzm+gL1klaBcJ9UY9+3rbfs0igF+LcwfHp6sY9LxpU9sUjJdEnhILCHRUC2HYjsi0MO2YWes3UbZT8JqWBsFYQ6o1Typ/v0NBnOQA7N5HxuVvNqH9ty5wnreXaxmlndr6tQu//o5ndE/PuC99rnR0NxpFAL0ha0j0e6YXhY6JBJY2affzQ0y9Mx2OPcKAxB6x7EcAOVbMSzuj81MpEhuc8a/Z5TzvIy8qfMrcFZw0oA6BaFeZIzv077cm+9PdSTHMeaHc007jnNgO9uH3Qq+9Tp1WmFnr07yh/O7svGrP/eSKBXqBzB8dTpX4sWNKdq+4NV2ajW+qaEo1Wy6wBm7dk7/Oemsr8/Et7hh51DzVX9ZJz1v06GNWyoPsyv23MPgcg9zrZakb9bV+mvvNSpqe/N+N3ZvOZnW+rsFu/bt+n3aN/Z5D2FbhlXk7Pk+X4/N7RoAoJ9EKdOzieXhqNZVjR0McGUzyeO/T0C14QcSM5jlh2X8PWTAtB7xQwC320GkWcvUyXb5+3V2XPzSp/A5P7AJwzyh8ABdRpZp/335R7W5v+BlqeiX2ztMlnXNt94fv08n6QQC/YuYPjF+KRbuiHRYMujx56+oW2Jd25joUMz/nA8cOnWy4dbNq0EIhpoZ26CfcO1ZKPlnEfjNwT6FNKDAAFLN+uPdn/9uV0yHe111zba219at9nK/dClWRfUv766kBG57rjQTgS6A1w7uB4eilwd8h3qRn686BbPPT0Cy2hoCDTBS6LA/1gtmsfVPvnntc51jndomXbKfRNW/nrrxrui7hVZp8DUEJbWH02OLkuk5/l1ofV0ss55TOKWa67hiu7bWWyV936ga1QiAwnr+34XpBAb4hzB8fTQyY9+M6KBp3GUzyeOfT0C/ZIou4Njc3aG+z5BZsxLQR9k/MzKPtOXabLt88qNmJb9dM8NzyzARienGcI6t+JdcnttrZniftli/dB3e6ZvaVsmZfZc+R8LwaXSaA3SLWke3qInwj5LjlD791/6OkXFuIxJhRUct43697YKJlwCeG6JOzEdiMl7IPecs/QpZ3RuaaXKjm2xXN+QThfzWoCgFzbkclStRIWA1AlY3KdnGYZd8+SbO+XLbbbF9wXvkevnh0S6A107uD4dHWznxcNKvtS5XLo6RcmhIICXiY+bj90uKb5ak8o+vP8TLE9ozOkk79Jy9Ve3fSnPC6GvJZ8zHEAS87PjGmlBIAk01WM1GdivlW5zoLNrb+Ue5+6jts0zW+xH5jeay+7L4q/Lwby7JBAb6i0pHs8UqX5mGhQSUu6P37o6Rem42EfaZYyP/9ZSXQoovMpxjp1W5HbXsxtxaXvchoUmNULzWrGfK7JhjR4ZVrxAKCANrD6bMCqAbDL7vWBxTsNUs9pEmCuK0vV+T5pD+i/6acj6sqBPzt6cg9IoDfcuYPjJ+PHsWBJd666N1yZjb5fKBot91noaUDIM5Zzh9p3IoqT+QuVbOv+TAdNGdDimdctt3u4lfF9oewBUEKd1pP9XdmW6UzPO9dl3M1Cb/Z9sjCg/6avjh8+fTTz+yKn+7pnW21IoJOS6KkSGgtbXA6DoqXZJM8devqFk0LRWKXsCZmWcz/lcsKqJfu96uDfqP6vluXSmRuMtqKiPdNlTJkbmGlFA4AC6jT1mdhv1YFMzzu3flMr8/u7VcD1b4tro8+/Z9dfAp1V5w6OX4hHKgQPiwZdHj309AttS7o3Urug73L/8cOnFwpYQgmUa7EehFxnoefWGV0yY6j/erVs24DsVeYGVvbUhwCsqvaEHs309K2oMrw2Zh33WN7sPd/KMN7tzOKdazu5jts0LVXL+JfQD8z5vki5oX1NrB8l0Fnj3MHxqfhxd8h//2N6J41OXDz09AstoWhUZ6Bd2FdKlfw3Y4U/5erSYGafZ9hY16nbUnslJ23FZGCy6dfk8kKzeoGS6/7nkg0AlND2NRhTm6Jp93xO/aec90E/WtB1r9tqy/syvi9yem70tH6UQOdtzh0cTy/Y0wjMs6JBZXU/6UNPv2Ap7GYp8RnwUGysLGa6Vy40qcOZtWqEdK5b42Q3Az3TZ7ryODiLGZ3rWCbnmXM7StkDoIQ6zYAw16Bp93xbnBt53gtD+m/dF/med0+fFRLobKha0j2NODoRMl2Shr64/9DTLyzEY0woGqFd6PdKM6aeOX74dNuy7jSJ/c89Qzcpx+dijp1Q5VGscy5/uW71kOpCCQcASqjT2i6da7BNue6DnlsbrpVpnI8UVM7qWEaPZnpf5HTePX1WSKBzXecOjk9XD/zzokFlX7i88v8cevqFCaEoXukvGFOnIS3rPi2RTgPMC0FWHb3h1vP5ye7FpwEtA3XBvdxzrUzvBSusAfCWzLckabuCQ2/PZ7vqWLz3c+w/LYa8tpxtZXhf1C1JurzDfnPbfdGT+2Iss7qyp9ddAp0bSku6xyNVrI+JBleeHCN3xP//+H/+K+f/5aGnX9gjIMV2BlLjtAmDZ+4NVxPp7mdKJVk3+GdoO9dzz/CFSm7na0CL59+17FHm+qqtOABQQH12vkreom3RtHs/p4k+ezPsV7dK6sdVz8m6vdcedV/01Xyv60cJdDbt3MHxk/HjWLCkO5XLo7f91V1/9sa3/9r/9G9/RjSKNd2g75oS6Wl/9FNmpFOgRSEYTuM90/PO5hmY6cwhA1oGywz03pa59HwYzfReaCsOAHRpqc9o6LVw74vzRo4WeL0XxLlR93HPB9lIoLMl5w6Op5twLJg5Q+Xy7bfc/sZP/thTf+1//PKTolGk6YZ93/RC+P5gaXfKI2En7lux37n21aKiId7XaYfUXa5to2VbJwBQQDsyabt0+nsNbc/ldu+3cjnRmi7T3S70nmm5j/N5Rkigs2XnDo5fiEcqOA+LBh1vfPC9R3/ml3775SM/f26vaJSjWvbkTEO/fvfS7vvdDejY06C4j+nMuS8Kasss5nS+GWwn08r0VlDuAMi5zatOq2c7s45LRG/GgYzjndOkvpzazUdreL3bPfg17TqWv1y2EM1s//O+DJiWQGfbzh0cn4ofd8djSTRILr7nzj2v3/3j3/zZz/+rz4hGUaYb/v1TIv252Ghox6PldiBDy/bIGxoJdOda0n3BYOxX5vqi7dYCYJ19mfbtFl06bfudyniiSE77oOe033WrZufTk4Ep1fNySbyLP8++PRsk0NmRcwfHUyMhVQRnRYNk5ZbdI6//pf945tOPzv+CaJShGvFn24YrI3SfiY3ftE/6hHCgQ88mnp+WcO+/sQzvCwNayNlYpufddukA6Mg4eahv55po0+Wllcl5Hin4OtfxnsllH/Sc9mvvy3WWQGfHqiXdU2E6EY9lESH54Yff9zcl0YsyJQRvSUvXPB473BfiMWWfdDIgWTdcOS7pN5rRuea2/KABacrhjYwpc30h4QBAtz2ZnnfbpdPG6JEsB5FUg9Rzyj+06n6Cxw+frmOStF14GW25f3vODHTq7dzB8emqUJ0XDRJJ9HKYhb6hlGB6KFzdJ70lJOjQU0r8c5iVk8u+YdRCTgOJxpS5nrOVCQDr5dp/X3Tp9Pd6ZH/GMc9pGfeWcxx6uWrX8PvtrfuErOqdUC6TK873q78ngU5PpSXd45EK12OiQSKJXpQpIbimtE96Wt59wfLuwDqLmZ53DomyHF/6tBUJMma5WwBKkeugsEWXrl6qpM2yMqBPdQ057INetxnoS9Xe5b0qo3VdtaDuy6O3PBMk0OmTcwfHT8aPY8GS7gRJ9II6BakyOisS17UvXF3e/ZTl3dG5JNgTr+nnCCWx3C0Apch1+Wp1mj5frxzION6zmZ1vq64nVr233NuAtnvbfVHc+Q3kmbBb/Ua/nDs4Pnvo6RfGqhv4gIg02xvjP/o3fvbz/+rpX/3sX3lCNLJ2sqpAR4XiulJ87k9HbIympe+nY0d3WligkXJdNnjMOfbFQ7FeeEixINP7OtcZ6JZvB2C9HAeFmaRUX4vBu++BSbP+Y58qbSG7L5NTbsXjVE3PrfT9z7t/55Gafc8jGdy3WdSN/RxcZgY6fXXu4PiFeKTC9rBoNNvKLbtH3vjzP/a/Hfn5c3tFI+tGauoUTInElqROVGdW+pRZ6QypM8/wnpttUeib/UJAgercTsh1Brol3AFYb1+G56w+0+fuqeOHT7cyjnlO/ew6J0rreA8sNOV+qWsZzGz/875eWwl0BuLcwfGp+HF3PJZEo7kuv/Mdu9/88T1fFYm8zcxNplGT8yKxZanhkWYdfjM2RNr2SmeAZXZRFCikI73eHpcJBsoe6ABkL/bF7X+Otkb+slrGvcaDFeqW3F+u9izvqX78zh456rx2rN3PXy6BzsCcOzieHlTppYs9lBvs4vv3vPfT//CZz4lE9lJFavmw7euelW6vdCifQUf94dkJ3FBa5lMUAOiS64CwRZeutnJta7Qybt+1Q17vJWsX6+OHTzdl+faOefdFkc+Gvg6mkUBnoKol3dPD+USQfGusN37yx/6epdzzVr2IPCoSO9bZK92sdKBucpiZoy0Bg5Xj3p7nXTYACmFAWH0tCsFQtDM615ZzGvo1reP9sq+mk6py6fct9XvVTQl0huLcwfHp6iHthUYDpf3QL/5Ho3MikbdqtOcJkehp48SsdHrNzOd6WMzwnGu9L2TGS28CgyXZAMB6tiShpzLeNm0s89C3MzrXOiYkmzYDva73S6tOJ1Pj7QY20vetHCTQGZq0pHs8UqP1MdFonjf/3Ls/+LP//dP3iET2nYTp+HFGJHpq/ax0M/0hf4tC0HP7hQAGx36xABTEQEz6IceVVscyj7l90Ld/Luna121Ft+V+7lVeTQSro5bz2ba+X1MJdIbu3MHxk/HjWLCke+Nces+d06KQv9gAmQiS6P2SRqg+GRu2i/GYMuMSABgS+8UCwHCZge760KWa+b+U0Sm3anQuTZt93lHHVRqPOp9tPwPMQKcZzh0cTzf7WLDUbKO8ufdHfsIs9GIarRNBEr2f0qjQh+Lx8vHDp6fjYeYl5GUxx5Ou+VYSBhQBALAdYzme9MzcpG1J6LUS3i3lNAu95Vyuq13I37FVo3V5z1tN3NqXSXkaSB5RAp3aOHdw/EI80sP7YdFoDrPQyyGJPjD3xuM5y7tDVhYzPe+xGp+bgUTAZpgNBkBObVwYpNECvkM7o3Ot0z7oRxrabq/r/VKX97utjMrTQAbPSKBTO+cOjk/Fj7tDXkuwsE0X3/eu/+TIz5/bKxJlqJLoj4nEwBreneXdJ4QDAOijXAetmK0HQAm8I62/thCI+43UYR/0uk7GGcQe5fZBz+Y8alP2JdCppXMHx9OIo/SS5qxolG3llt0jl+94xz8QiXLExsjJ+HFCJAYmDUB53D7p6MQD0EfaFwAwPItCAG9XbW2Q05awdUhet2oYl/lC/67NOlCT97mtTMrRUiz7A1lpTAKd2qqWdE+VSkrELYtIuS6+f/Svi0JxDdjpcGUlCWV3cDr7pEukQ/1YQrj3xoQA2AQz0AHQjoRrqMOM6B5oZ3SudYj30YZfw7Z7Y8NnQU77nw/sGkqgU3vnDo5PVw+Q86JRpkvvvv02y7iXpxoJNqbsDlzaw0oiHer1PMw1gVPn58eYOwvYZHsUALp5/wRlmc3oXPcN8z1d/LvHavoMHOQ1bNf03mg1/O+v5TWUQCcLaUn3eKQl3e2tXCjLuJcpJY3ikcruw6IxcBLpwE7tFwIAAIAbWhSC4agGTOa0AmZriH93HWefLw9y0GuN90E/2vC/fysGNuBCAp2snDs4nvZWPhYsC12cy3e+oyUKRTdmp+LHJ+KxJBoDtyaRLhwAwDZoqwPA8CwKgWvEdeU0C73V0L/7WtpD+DvruA/63mqFAPfG9Z0f5CqPEuhk59zB8VQhjtX0Qcc2XfoP7rCEVuGqEX5pNuNZ0RiK1UR6bIylRPqEcAAAAEAWFoUArqud0bm2hvh3H3HtVtV1wMVQZoHXeGn/oV87CXSydO7g+IV4pMrGstCFuPzOd+y2D3r5qiXdU2MgrSRhNvpwpHL2eGwcLcSjJRwAAAAAZKyd0bkOZR/0+Hcede1qf7+0Gvb3bocEOmzWuYPjU/Hj7iARV4SVW3YfE4VmmJmbTJVdmo3+mGgMr8Eej2diA3ra/uhAhsaEALgB234BADTAzNzkYvw4n9Eptxryd96wvT7I/c+77peFmvYVWg37e2t/v0igk71zB8dTobEsdAEu37r7gCg0qnGbZqOfDFcGwdiSYXjuDVf2Rz8pFEBGrFoD3MiCEAAANEY7o3NtDeHvPOqa1f5+GR3SaqEtZXxjEugUoVrSPVUCJ4KZBvm6ade7BaF50sixeLSU3+E20OLxaGyktat9bwAAAAAoW6ug7zIr7hur8R7Xw7xm7ZreG0fdG/W5XyTQKcq5g+PTVQV0XjTyc/mOW/68KDTXzNxkKr+p0n5YNIYmrQKxYDY6AAAAALmYmZtsZ3S6g94H3f7nb1fXARetwv++rO4XCXSKk5Z0j4e9lXN08023CkLjG7tpWfep+ONd8TgjIkPRmY0+a290AAAAADKR0xavrUL/rs1aqvauH4rq716qYVwGPbiilUl5OT+M+0UCnWKdOzieZlAeC5aEhuykCjEeE8H+6MN0JFyZjb5fKAAAAACKc6Gw79PO6FwH+b7tSA2//6xzuKZBrhjQUravTQKdop07OJ4egmNBAg6y1LU/+ieU46FIe+CkfdEnhAIAAACgKAuFfR/7oK9z/PBpy7fX+xyGeW+MhXz2Px/KtZJAp3jnDo5f+JF/9G/Cu//Jl8PN33pZQCBDaR8jifShSUu6Px4bVVNCAQAAAEAd1XhZ7o0cGNDf06rp9287h2s62vB7Y6OyPZTBMRLoFO344dP3xCNlzQ+M/PBiuPOXnwu3t39fYCDfhrBE+vA8FJ+n08KQnTEhAAAAABqincuJHj98ujWAv6aOM9DnZ+Ymh759QHUOdXy/PDqgLTVbmRSVs8P6iyXQKVZ8yHwufnw5Hnu6//zWr38rjP7i18Ku778uSJCpdYn0MyIyMPdKomdnTAgAaKgDQgAA0Dg5LePe1yRpjZfonnUuN9Qq5O/ohfaw/mIJdIoTK4a98Xgu/vjZeIxs9O/c9L0fhD2P/0a45fk/FjDIWJVIn4g/3hUk0gdFEh2og2UhAACgIfYLAWxaO6NzbfX599v//MbqmkDv67U7fvh0mnSay/7nQ7tGEugUJRb8z8SP5zfVsLy0Et4597vhji99I6Tl3Rm+XRdeOy8KbEfa46hKpL87Hg8HiZV+k0SHZrhQ43NbcHkAAGiIPUJQewY51ESNl+XeSKvPv7+OCfSleI0WanS/LMaPOuYkDlRJ7lzvvV7eL4vD+ssl0ClGfKA8GT++GI/btvLfveP3XgqjZ74Wbvruq4IIBTSS4zEVj9TAOJEqWVHpG0l02HwbZSzTU5ekBgCgNN4T0A8GOdRLO5PzHO3X+4Iq+XrAtcn6fmll+ruLuTYS6GSvWrL9O+HKiKqRbRWEV38YRn/pt8Ktv6kNPdQH0g/emBUFemVmbnI6HqkRmvZJPysifZGS6KeEAW5oTAiAzF0QAgAKsSgEULyc3jG3+vR7j7o2m9auaayOZnjfFXW/7PYsJWfHD58+GT/+h57cy5dXwu3Pvhhu+eb3witH94WVdygeA3fx0v8tCPRa2ic9NYSqEZ0T8UjPjVGR6Zn7Y2wX0oAFoQC4rvNVHQTXU9dEdVqR4ojLAwBQjuqdWYnfa+H44dNpe8cc3v/1a/n/Vk2/b7uG98tsvF/qGKu+XMNqdYJ9mRTnod4vMoRkKxb0VHh6vgzJ7m8vhz2/8Ovh1Z/9C+HNP/dugR6QkTcurvzq3z/4rEjQx8bQYvyYSkd8fkyEK8n0AyLTE49XSXTLPTenIwZs3YVSX1BBjfuMLeUOAP06BsAS7vWTZq7em8F5tjL7vTsxX+1RX0fzoX7vidPKy2N92AM8lzpl6PeLJdzJTnxo3BOPl/v5QBv54cVw5y8/F25v/76AD8hN3331j0WBQamWd08Nybvi8Vg8lkVl5x2TagQj9WK1hXoYE4KeM2AHAIDtWNSvow8Mcqifdibn2fOZwMcPn073494aftc6L61f13NrZfI7iyzDEuhkJT78Pxc/vhwGNKrv1q9/K4z+4tfCru+/Lvj9fhh9//WvigKDlkbwxeNkPNIz5ViwV/pOpIb5tDDAhsYyfUa2a3x69mMGAGA7FoUAVpU+maSdy4mmVZN6/Ctbrkkx59aPfdBbmRSNoQ9qkEAnl0okLVfxXPzxs/EYGeTffdP3fhD2PP4b4ZbnTZDu68Po1R/+Q1FgmNJ+N/FIjZI0K/3heCyJypYdic/qo8IAsCGzUsjZYqbnPebSAVCCtIyvKNBjRa/qVS17fT6T023V/Pf1wlKdt36szm25AfdGksOWpst1uF8k0MmhgfiZ+PF8GOZLx0sr4Z1zvxvu+NI3Vpd3p8cPold/+Ib9z6lTAzseU/FIndMT4coeOGzetKXca1ePStoNn2vQeznOQLf0JjlbzPS8x1w6ANRpDMABIaildibn2et3Bi3XYlvquIz7aC/f62X0jrAW10ICnVqLBfrJ+PHFeNxWh/N5x++9FEbPfC3t1+3i9NDuP37lGVGgjtbtlX4m2Ct9Uw27eJwShloxoME12I66P+/sgQ4AwHYsCgGsasK2WO1MzrPVq19UJUjrOHh71v0y/Psj2P98SyTQqaVqyfbvhCt7PIzU6dx2vfrDMPpLvxVu/U2rO/cspn/6g58XBeqsmpU+Ea6M+E6z0j0Aru/ePuzfBDnLMYEuQd2fNu6YKMBAaY8AoE5DG7+hfb60XWMmpzraw/uors+KdgbXoa7n2Krp7+onM9DhGo2Ok/HjD+Lx3tqe5OWVcPuzL4Z3PfHblnTfod3fvvCS5dvJqOF9oZqVnhq1nwiWd7+eKSEosqHN9uwTgp5bzPS8x1w6Mm0DtUUBAHUaaONn6Gwm59mrpbVbNfxu8+mdagb1w2L8OF/wvdHr39Uv5+tyv0igUyvHD59OjdhH47E7h/Pd/e3lsOcXfj3c/K2XXbztxvBPXn1EFMi1071ueXfWOmAWOqy2bXJdQn8xg45tjmypAIO1XwgAUKfRZ2OZnndTVh1rZ3KerZr9niZeg7qe695erFBQ/Y69rsHmSaBTC7Hw3hOPlIU+kNu5pxnod/7yc+H29u+7kFu0+09eufCrf/en7ZVM1rqWd393PB4O9knvNiUEOvNk+6JrMYNzXHY/wEDluIXNqMsGwAZyXE3OQEx97l670JDr025KX9H+50Wfa6sO91jTroEEOkMXH+yfix9fzr0heOvXvxVGf/FrYdf3X3dRN2n3t5cfFgVKUS3vPlV1nNK9bZ90s9B15hH//spxxoQXn+RsMdP+poErABTRvxYCfT5tu62bmZtM/calhpTxVg2/13J1DXK5X9o1PbVWoffHRvdLba6BBDpDc/zw6bT0xHPxx8/GY6SE73TT934Q9jz+G+GW5//YBb4Bs88puGG+mkiv9kk/ESTSJ9wVOvPin6V2BueY44wJiTzwHAZAW3dbMt4eSlujhjLeFqvYMt+DgZ+tGn6t2Qzvl7M1PKdeXNv9yurWSKAzrMrgM/Hj+VDiS8RLK+Gdc78b7vjSN1aXd2dju5f+9NOiQOliZ2RaIj3cq5M/dHuFYKgkTPsnxxnoYy4bGWt7DgNQiEV1Gg2/Lucbdo1mG3Iv1fFezLEPUcdz3tuD96sHxH5rJNAZuFjQn4wfX4zHbSV/z3f83kth9MzXwk3ffdVFX+eWF/5k/lf//sFnRYKmWJdIb+Ie6RPugqHXvWOiMDS5xj6H5PRihnE1oAU8hwHQjtwuCfT69bVTQms0w1O/0LBL1c7kPFs7uBfHatrfnHW/1OL+aGUS+1rdLxLoDLJBkUbJfCf+eDQUsmT7DQvYqz8Mo7/0W+HW37QVcsdNL//Za7/2t+9piQRNlBLp4eoe6U1KpE+4+kM3JgRDsy/T51UOL1QWM20TaweRq3am5y3ZAMB6C5met36ddkbT23U76d+eL/x+qmM/83wm7xbW3y+pjlgq7P7I4Vm1VLetJSTQGYjjh0+fjB9/EI/3Nu7LX14Jtz/7YnjXE7/d+CXdR964uHLzH37vhBJBk3X2SK86vmca8rX3mQGtU9/Q9k+ucc9lOb8F5RHYTDtECABY3y8PeQ5q146sn1am532hgdcqh5nQO2m37hfznmoX9rxpKaNbJ4FO3x0/fDo9bB6Nx+4mx2H3t5fDnl/49XDzt15ubAxueeG7//xXP/tXnlAq4K1E+kT88e54zDfgKx911YdqTAiGItcXXFm8TPHiEwZe5toZ90mVOwDWy3Ew5gGXTV+7wff/TmWRzN3BimUtMe+pOvZ9dlIH7BfzrZNAp58P+3vi8bLG3VVpBvqdv/xcuL39+4377re8+L2F//OBA3/LXQBrpWWB4pEauQ+Espd1b7naQyVxIO65dxSvZcF9AQOVa1tFOwSAnNu8bzEoTNu+wf2oHamW5V4u+J6q26pLy1XMc1XL5P92BljE/2ZP/NibQRk1A51miIXyc/Hjy/HYIxpvd+vXvxVGf/FrYdf3X2/E97156U9f/LXJ/+xuVx6u20g4VTWSzxb6FVuusk59A+V63+e0nF+OHXLLSZMzWycAoE5TpxHeSkrl2LZfznFf6h5pl1jGdzBrvZ9ynn3eWfHufAn3R8jj3VQtV2eVQKfXDYe98Xgu/vjZeIyIyLXd9L0fhD2P/0a45fk/Lvp7puT5U3/rox9wxWFTjbPFeKSlzkucjT5qpPzQ4z8mDAOXa6J0wbn2vc3cUjzwfBgoZQ4AdRq9ZvZ5fmYLva/q+FxoF3C/1PE7tAZ0TymbQQKdHjp++PRn4sfzwUjIzbu0Et4597vhji99Y3V599JInsP2VLPRU4PofGFfTUdf575J7aKc73cJdM9DuJbFTM97r4FkAKzrd6c6LceB6/p12vQ71W7wNcvhu29nIH4dnwuzBdwvdfwOpc5Ar2XZlECnJ44fPv1k/PhiPG4Tja17x++9FEbPfC3c9N1Xi/lOkuew4878QtXAOVPQ19LRF/8maWV63lkt55fxnmpHFREylfOMpZbLB0AB9do+g8K0LRrcnttp/3ExZDBZZRsD8ut2L54vYZuA+B3aNTytvdX2EVtR9/eBS3V9tyOBzk4f5qnAfidceQloyfadFMZXfxhGf+m3wq2/uZT9d7nl97/7Rclz6ElD7UI8JuKPDxfylXTyde7Fu/5yfJkyn+E579tGpxc8I9SDAPRWW53GdlRt+QPac8p9n+zfwr04Fj9GxbhvzuZcB9T0/sjmfpFAZycNhZPx4w/i8V7R6JHLK+H2Z18M73rit7Nc0n3kjYsrtz73Rw/82n/zsb/uYkLvzMxNTsWPEwV8lQOupvg3pI2U88uUHDu6ZqHD4NokaSZJriN+W64gAAW0fdVprsFOLFWzsJX7etvfp393UGbdL+6PEsqkBDrbcvzw6XRTPxqP3aLRe7u/vRz2/LNfDzf/4fcyOucLL9363B/d9at/96dPuYLQe7GDMx0KSKJbam7o8W+JwkDkHOdFHdqBkUAnV7kOWkmrp9nOBIDufrZ2JE3r8y0o95M5JHdzTpAuZ/xs3Ugdv0sr4/tjI7UtkxLobMnxw6fviccrwSy2vht542K4c/bfhTv+r+drfZ67vv96uO2ri//8SxN/+X1n/7tDS64c9LWRPx0/Hsj8a4y5kjr5DZDzC60cX6jk2jk/Yhl3PCc8nwEYuhy3Axo1KEybomF9p147W/Pz27eFf7flHuufam/uuuU8DmR8f6x3vlrlrJYk0Nm02DD7XPz4cjzeKRqD847f/U549xf+7eqs9DpJS8zf+tv//o/vOPf8x8/+g0N/05WCgTXcTmXQ0L8eyaLhagnBQOT6MmW56hzm9lxMna3z7hUYmLbnMwDqtaGbcOmGoxq8sNf9rtwP4D7bjLoNppl1v7g/SrlfJNDZTGFMS919I/742XiMiMjgjbz25uq+6Hf+ynOrM76Hei4/vBhu+41vhtHpr37x9vk/+Mn//Z9+5t+6QjCUjnKuKz4YJT9cB8x47Xu7KSVnRjM9/ZxnlbYzPW/JPLKT+ZKM+2wnA8A6uSZ7tCOHZyLT885ywHSD+483fH9WJVFHxbaR9URrE/fHWKj/+6la3y8S6NyokH0mfqQ1xD8oGsN3879/Oez5hV8Pdz7x9fCOb3xnoH/3Td99dXU5+T3/y69//7bf+Oaxf/Erf+Ov13l5DShZVfamRIJ+NbLZkZxfZLWd+8AdkcwjU+czPveTLh8AXf3rlFBczvDU91rGXZ+vQf29fpT7uk9M2Uz5rltfMi3HvVjgLdPO9P6oex2xXPfB2RLoXFNshD2Z6pN43CYa9XLzty+EO/7l8+Hd/+TLq0ntW1783urM8F7b/UcXwu3t319N2o/+r7+ZlpM/P/L6xX3xwTbrKsDQG/vTId9Z6Ojsi289mYE+HBOKDcqc5zQAQ5Xrey6DwgbM8u3aswOUY4K0yHusptvGlZBAr/39sttzkg0aAqkR8NV4vFc06i0lzdMe6elI3vxz7w6XfvSd4dJ74vGu28LFH9/8Kr1phvlN33893PQnr6wmznfHz3VJ+YdjZTEl6lArqUw+ntk5t1y2oZM46F8baiLku3x71p3d1KGN8Z+PPx7I8PQnglVFyPN5cX+m555m7B01KBiAdfXavfp2bELOgxa0ffIq95tJfrbcYwP9bvtqdD77Mrw/srtfzEBnjeOHT6dGwB8GyfMs3fytl8OtX//W6uz0d/2Lr4cf+Uf/ZvVIs8fv/OXnNjy6/513nv13q/ubp9/TlTxPy1h9QvIc6qeahb4sEmzRaLVPN703kfG5ny9ga5ZcO+t7q8EXkJO25zUABcm1HTmqHTk4MdZpplKufemlQpfWLrncj25iu686zTCu/XLcpfV/4v3Ryuj+yLJPKYFOd4FLN+yj7ovypNnlKSm+0XEDZ+MxVnjlBxpwNJEEeu/bUaljeyDjr1DCsyTn0e5TShE5qekyhltxZBMvJAFoVr12NtPTt4z7YPvRua44ZvZ5nu3Za7ZXq7Zsne7HduH3S/p+dZvEtP8698eemj+vzucwqEeilFSY7onHKyHvl7703gPxIXa0gNloULq2ELCdjn/VmKZ3cn9xlf2zpOp85ZrQ27uJ0ePgudFbUy4hAF1yTTDu047UdtiEaZcvy3J/vbJt/3PfcX9G90eW94sEesPFBtbn4seX4/FO0aCSXjzfPTM3eUooIAsLQsA2pFGoZqH3rj2VBiNM6AjWwnTG567tRW5yn8l0r8FkABRSr5mF3v8+X+o/78309NPS2t4d5dkPzilBOut+qdX90RLLnZNAb26ln2a5fCP++Nl4jIgIlTPp4apRBfmwxQI7MCUEPZNeWI1mfP7zBa04k3OnfZ89LMmwDbKc+deQcACgU6/lvIy7rUm0GUrtIzW9PXu9cl2nBPpSDstxF1iW9m3z3qlD2cviuSSB3kCxQfWZ+PF8PD4oGlRSQ+FYfHBNWLIdoDEsGd2bdlWavZh7AqaYFyqZL+OeTJkRi+fHQD0k4QBAIfWa1Yz61+dL/eactz6ddhWvq13jc7tegrROCfRGDNKo3jcs1fD5VPf7Y71sBqtJoDevwn8ylfV43CYaVNJL5v25jPoBNjQvBGzTlBDsWO6zz0vs7E5nfO57gxmx5KWtLgSgFDNzk6kdmevqKkcMkO6bnAcnLFm5MO/+cCzX+6/Td9Qn8F3HrvHn+8Rw5yTQG6Jasv07wX6nrPVwbETtb8gSK0A9WOWiXg54ybKj9lUJs89LXGptOvPzNyOWnJQwAOdedSEAhdRtUy5fz/t8E6HeiagmtNX6rV3z8xvb4L6sVdu1YRPz6vZd929wf+xX5npDAr0ZFX16sfuH8XivaFBJo2k/ESs3DWtg0BaEoHbUBdtn9nkNZb5/Zce04oXyNlCWvQWghDrhQJXwpQeqAdOn3M/Ft2cXQ82W5V5n/yb/bFjONuyWaWdwf4zVOH5pEkc274Yl0Muv6FOBftS1psv/mx6ilu+Botgvl50wC317bazUIXmogK8yXeglmi6gXFrKnVyUMBBnnzIHQFK92D+f8Vc4VSV+2bmpkPeA6fNWHS2iPVv3BGm7YXXEhZrVEXUfYJH1/SKpWqjYULonHq/EHw+IBt2NgfiQ/8nqQQ+UY58QsENGpW/ddAHfIauRv1vs1KYXIEuZf41HM1h6DXLfL7bblDIHQAH9o9FgNaMdqwaZ3+8+box2jc9tbIM/q1ObtYnbBNTpO49uMGhqv9j1hgR6mRX85+LHl+PxTtGg8lq6NWbmJo8JBaBTwgbMvNtaWyvFqoRBiqV3dEt4YTRrBhGeJwMj4QDAqgIGhx2JbcijruS2+3t7CmgTLAf7n2+lzNc5VhtNmqlLgnSpoasctGt2PuvvhzGx6w0J9LIq973x+Eb88bPxGBERKi/G44OxMntCKKDIZ39LFOiRqWpZcq5f5lKMpgr5OtOFX670/XKfFbs3SOjheTJIaUCZMgdAkvtgzGn9ux1d+725X38rkG7ZfF1PrHuVpGqAR122FmjkII1qa9w6vWtYn0Cv60ql87k9lyTQCxEfnJ+JH8/H44OiQWUlHp+PD6UPxGNJOKBYuS01uuCS1ZaZd5szHfLeB6/jfKnLt3d1ai8Uck+nGUSWX6Tu5a0d8t82oePeWOYmXFWAxsu9/ZX6LGYgb1HVBrjX/dtIdS4vY10/1+k9YLvB90udvvuermfYmJj1jgR6GRX7k/FjJh63iQaVtGT7x2fmJh8UCiheK6eTNQK69g7EdsWUMFyzzZVic6CQrzPdkMtWyouj+yX0UN4G6nFL3w68jt1jywqghn3XM5l/DSurbK0uSonJxwv4Kmcbuqz2TrVrfG77r/HzsJ+TTR6kU6fv3ur6eUzMekcCPe9KPS3Z/p34o4493dJSGLfH41mhYJvPlpZlvrK5Vukl45Gcnk+uWhYekjTYsLxNpNgU9JWmm3DdqhdHZwr5Oo9LouO5Mtjv071cJv1rz1YD1NLzWryBupkq4Dvca5D0puqjsVDObFqzz7fXd0wrtNV1RaWxa/w8TE1/x1fX50Wrpue1nOMqiBLo+VbqJ+PHH8bjvaJBJS3Z/kB8ELWEgh5UtN+Mz5lZ+2vXXm5JzkWXLBuSBmvbXSkWJb2EONOw1SCmCvoukuj5PT9ScnCiCdetkJl63dLSt231YV/Lx0TVPnwolLE9ClBe3bZYSN32kDbk9dtr4crMyBLqovlqax22p66xG+v6uS5t00ZvEVHVD3UZcNG9UmJdV3TK8n6RQM+zUk8P8kddP7q8FI+74oPbCEN6Kc1sfiY+cxZ0tGrrZGbna//zfEgaXG137a860SW92J9uYMe2pKSeJHoez46xau/6dP+lpUDHGvLVp9SHbKJ8pEElnbIhcQ6o27Qhh1kn7an6e/vcr4T6JtC726JjYlUbszW/V5StHZKAzatCvycefxbK2XuTHj2oZ+Ym3xePJaGgT/ZVHa3FtOyXvQlrUycczbCDJ4Gel8YnDQqbidBxvqEzEqYK+z6PW4qzts+NtBVOem58Mx73h4YlB6sBK6Ut55iu4XOSDjuvU9clzveKCpBR3WZLoHL7e6lvVEry3OzznavrLNnRrvexdWhDLeW4HHcf1Ka8da0iOyZWvSOBnk+F/rn48eV43CYaVF5Lt0asrI4JBQOSGmhpecWX4zNp2vLuQ+/kZbfihI5clhqbRO+aeV7aC/5GrlZTvfh8rLCv9VBVHxvYVoN6OW2xVSUGnwlXVvFpsqlCv5eBK9svHyluqXxInAPqtnrUZ9Pqp9X+Xqqb9rlP6eo3pi2Jztf09PbX6N1M291S2zjUsa19vnonkx0J9PpX5nvj8Qfxx8/GY0REqLwYjw/GB88TQsGQ3Bu6lnf38n4onaLcXj7Ou2zZ6iTRJxrU/uokz/cV9tXSKPHphj87lwusjy0vPbxnRat6Af1yuLLFlsRgeGvAXKn1fhq40tb23Vxd2lU+7HEO5F63LcaPh0tqQ6YVc5pan1Ur+rULq5vMPu+dus5CHwv12d961m3y1oCLuvR70hZiYzUNVbbPJgn0elfmn4kfz8fjJ0SDyko8Ph8fzh+wZDs1sbq8ezwWzUofWN0wEa4sCZsbHbm8pRcLj1f7+ZZexkp8mdJxqsk3cdW5nSq0Lk4JvZMeVQN5RoxVW9oshiuzze8VlQ1NFfzdDlRt36Mu88Zt1TTIIP74nPIBFNiWLmkwZloxZ6FpAzGrPu2TBfb39AV6p13T8xqLR0uM3C/XkO6NuvZPsh1wIYFe38o8VeQzwZLtXJWWbP/4zNzkg0JBDaWOR2dWemev9DFh6XndsD/kmwAzOrUM91crT+wvtIxNhTJfpiTpZd9002/g2I5Kz9ASByGme/bRamas+rf3z4bO3s1pn7+0t3maTWu2+fXLWjuUvfpMKnNPVrP3xpSRK7PN45EGKqXBtQeUAqDAui0940pLUqb2zHNN2KKkqqtSW+7+Ar/eGftR97wdW8fBMg9Vx7DNV89DrqjL+870Xv7RGsZnOefVMXa7v2tXmaeGy1fj8V7RYF3F1BIGMuqArTbq4jMt7RuUkhWzGlc77+yFfGfFLuvMFSXNdk0vWdIShqdKKNtV8mM2lLdke7dTnsNvmQhXZg6XKCWt0iCXdL2nXOodPRfS8ohHq+OIiGzLVMFlrSPdG61qNlujnrNV23SiKiMGlACNkLZDqlb9Ka3f8FC12t1EacuAV226dM0eKvS2XA5mn/dDWx/gmkyQWVsvpP53Koe2K7p2WcqWGej1qtBTZZdmNEie05GWbH9A8pyMdZZ4f7maoWO/9O3VD6kj+1zGjTGN6zKlFxALue+NXs22WAhlJ89TZ+6UW/atDm7qwJ0p+CumuuKhakWYCVd8S8+DzkzzVG+9XLVhvDjbWVmbb8BXHa3qxM4qTHsKLiNp9t6paguD1DZNs/gkz4GmKTVZmZ7nz5S0olHVFl4I5SbPkykDpfuiLQRiIyZiYwZ6fSr0dCNZ5oxuL8Xjo/Y6pyBHqiPto3w2XEmqtuM9vig016wb0gvYlPTKff9ICfRy7a3K9FTVcZ/OqHxNhCuzI5vw4t/s87dLLz7TrMlR5bPxdW2aRdsKV2bS7hORnktx/WZDvmsnkX4yLWdePXsXMy8fnZUYWg14ZgJsShogFp+Pj4UylwJP0vvpb8bveKaqy7JbTa5Bfb3z1RZV9F56j/WoMLzNkhUmr3m/GHh97dhkSwJ9+BX6PfHjXLDXOeseLLEyOiYMFKyTTA/VMu+z1X2vEba2w5c6Qrm/qEyNawn08nUSdaeq+3a6rkmDhiXOO2Vwyi26VhpQUN0LTzaofE51lc/GDqioEoKtcDUpaPZsf8vaYuFJho2MVt/3/vjd0wz86ZDJdkbVjMPOoJJ0GFQCsLGpUP4WFmkg/72duqzugzGrOmyiOprSvptQFPvahl3SV3ibthCIyxYs5T6gWAJ9uBX75+LH34vHiGhQeS0eJ+KD5QmhoEH2VcdD1Z4xs1XDo5Gz02MMWlVnvJRVSSTPm6Uz++6hanDMdLiSNFgccrkaC1dmHE+E5s2em3JbbiwN7qlWRGnKSPH08ifNoni0mlE024QBTl0J884hITic51ATn7+has+l4/EqAdEONRk02pUs7z68JAbYXDuyMxjzmabUZdVg6dk6tSG7VkqZCM1b2fVhk1D6Lt3n9wvDGm0h2LBOMODi2mUoaxLow6ncU0H61/H4CdGgy4vx+KQl22m49GL13uoIVeOjHQpPqHd1+qYKbGxZTqy5UpKqk6xbClcHxywMoixXg1FaVdlqasJs3rLdNzQRruyL2LSObmdGUWfgWmdblaxnplf1aWf2rIRgTTRsxYfr6STT0yCz1Wd09fxJx2K1Z3yvy0QqA6lcjFVH559tHwew8/qt3bBVVka72pDpn8929e/agziBdW29Jvfz0mB171r6rx0k0NczSeb6sXG/vL0MZU0CfcBiRf+Z+PF4sGQ7V63E45HY2HxQKOBt9oa3J9QXBt1J62PHr9Ppu7fQ63fWHvd0leX7O52JKmnXKcsXqp8vbGcEfddLlLHqSOVKYuCKKSG4vobNHtrI+oFrnW1VVstnXRPq1czZsa6y30mW25+5vmVttpqB7fl81YHueFTJiGS+69/ZbFu31fVzqhettAAwuPZ26Uu5X0v31nyd+muxOtpV/d/ezi/u6uPt6Wrnjanf3jLR5C2ZBqgtBGucd9/d8H6RQC+sDEmgD1Cs/J+sGlXQkZZsPxQrn2eFAjZlb3V0d9LOVx20TjJuscZ7L7fC1SVkm/AC2YhormU0rEscdJXpjvkb/I6xYGbp9ZzJeZDRIFWzhx4OV7YfaLrOtiqdMrkUrr4E7Qx26Ws9W9WVHa2u8j6m3GdvorqHDHS4vgPX+BmA+rUj02DM9K73OdFY0797aBv9OwPANsfS7YMt3waAXmX2+fXvl9l1z7ymmy9hwIUE+gBUS7Z/NR7vFQ3WPURawgA71nnZf2RdJy0l1lNF3a7+vXbVoGn3+ZlvpPTVZ1zb7ckO6KRuX5rhf1IYttTZnaoSt+67tToD16412KVT13bb6Nk/Vh0bMXO8OeUs7Q04Fa5s7wEApdRvC7F+e0D9pn83AOk9y5QwDNSse3dNLLhBGXW/lHW/SKD3WWxApZeX/ygeI6JBJS3Z/ndig8fMTOivfes6aetHQHeWkO5YrI6taHX9PBbMiuumUwfDY0m/7Tkamrkfei/q2m5eGHBNqQ9UDVY5IhoAqN9g05aDlW2HoS0EV+4/Kx9sigEXhZUdCfQ+ig2ntgLDOi/F46OxwlkSChi60WCJzH4x+xyG52xaOkwYtq5rCc52MCMa+mkiXBm0qJwBUFr9ltqRliGnH1oGSQ+lj5hWmFjWbjX7fJPaQrBqqZQBF7tcy96LD9V74vFnQTKGdRVNfHC8T/IcaMiLA2DwlpW/nak6eZa/h/6Ws/Ty1wwqAEqs3yaqNjn00gmzf4dK8lhieLP1wII6oKz7RQK9x44fPv25+PHleNwmGlReS7dGfIAeEwqgAR5Le5wKAwyFpdt70+mdjh8PiAT0tZy148fDIgFAYfVbSp4YJEYvnan6JwxPWwgMIhCrZpYZCfQeOX749N54/EH88bPBfudc9WI8PhgbOk8IBdAAaYWNKWGAoXjM0u29k/axjB9nRAL6Ws5Sm+GsSABQWP3Wjh8nRIIeSNvjTQjD0DW9n33eQP0taQtBOWVGAr0Hjh8+/Zn48Xw8fkI0qKzE4/OxcvmAJduBBjH7FYbUoQ0Gr/Rc9bJKEh363HaonmEAUFI7cjpYaYWd9/GsZlCP8nyh4e1VA/W3pt30Z1dJ74Yl0Hfo+OHTT6bnaLBkO1elJds/Hh8UDwoF0CCPVSPtqYdPVMdjQlG81X3PDV7pjyqJboYs9K+MdfZDt1cgAKXVcVPBYEy2J03Gaunj1Urbd2eTz/7FYMBFMSTQt+n9l8OPHT98+jvBSDDWSkvr3B6PZ4UCaBCzX+tnIQ1oiMfJVDcJR9Emqr0W6WOMgxmy0DfVS6ZWkEQHoLw6LrUjJdHZitQeOip5XjtNnYW9bLLMtrR99zJIoG/De1ZC+NilkS/GH98rGlTSku0PxAqlJRRAAzt3Zr/Wz/6un9NgP9uJlOlh+573X/V8S208M9Ghf+UsDQSaEAkACqzjUv0mic5mpPcrLQOka1mO26GZgz3brr64beUZVtqACwn0LfrwpZHwiYsjYSSk/4NVL8XjrvhwOCUUQAOZ/Vr/jp7lcct0ploWkgGVo3ikcuTlJ/SvnKUBQSdEAoAC67gJ7UhuQPK8/toN/M4G7G+/X6OMFEACfZPuWAnhr14cCR+6LBasrUTiA/F98TCzD2iiE2a/1tb+dY331Am37Uw50nLiJ4VhKB3hieDlJ/SzjE0HSXQAtCNpFsnzPLR9Z7agidspFveOWAJ9E95/+UryfM+KWPCW1+JxPDZsjgkF0FCPVS+5qac96/+gWkZJUiJ/KXnesm3C8FQvPx8WCehbGZtWXwFQcDvyMZFgg/6d5Hn9NW0Cyfl4Xy667O6XLWiX9oUk0K/j5nh85NJIuCceNwsHV70Yjw/GCuQJoQAaKi0dbfZrhiQlspdWvJE8r0dZmlKWYCD1le1HACitjjupHUlF8jyvsrtY9cmbou2qi98WLJU44EIC/RrSbPOfvjgSxizZzlVpDYLPxwfBByzZDjTYmWrUPPXWuk6nbzp4YZOjlEQ6KnleH1VZujtI8EE/y1hLGQOg0DrumDqu0c4Gg6Nz1G7Qd7Vl486e8wsNe8YXeb9IoG9g3JLtvF1asv3j8cH3oFAADSZ5Xk5DfjpIoufEnnj17hTvD1dmjwD9KWOt0KzZPgA0o46bVcc1VtoSz+DoPDUlqbxcbQOI+2WzirxfJNC7pGXa03Ltd8cDuszHCuP2eDwrFECDnZA8z8rYjf4FSfRsWNav5tIyZfFISXT7WUJ/ypiBKgCUXsfNi0YjpIHRJ2yJl7W274k4blifmYFesveshPDpN0fC+y3ZzlVpDYIHYuFvCQWgg7eabCUfezfZwE3XVRK9viTP8+owphdhluKE/pSvCwaqAFBwHdeKPz4sGkVbqvp200KRd3kNzRjwYvl2cdyKs6V+MQn06MOXRsInLo6szkCHykvxuCtWiqeEAtDB08ErvAOYrq+kX/3MB3vi5VieUgfZLCLoXxlLA1VOqLMAKLCOm4ofnwiWdC9RSi7tNzC6GG3fkU0+19P7nPPul3w1OoF+x8qVvc4/ZNY5a83Gh9v74qHBCujg6eBl6/jh0/u30Kjv7L8nIVEPZ9IsFMnzbDvJi9UsogeUKehLGZsOlnQHoMw6rl3VcWdFowidFf3sd16W0mcVn099Wpe5Z9q+Y74am0BPS7Wn5PmeFSWYt7wWj+OxgjgmFEDDO3gP6OAVYc9W/uVqsMRYMHN22NILlglhyF+1kpHZ6NCf8rVYLeluuVsASqvj0pLuR4NVwnKX+gD7rehXZBldKLxstl3lnip9wMVSyZOvGpdAT8u0f+TSSLjnkiXbWePFeHwwFvYnhALQwbN9RYM7gp399+wxO4RORzzu9oKluDLVmY3uBSiLQtCXMjaVnp3BbHQAyqvjUtJlTN8sO51JCS2zeItWclK07fL29FleejyL/n6NSqCn2eY/fXEkjFmynavSGgSfjw+yD1iyHdDB08ErTGsHDfy0x6yE3+DYMqH8TnPnBajZss1zJh53GRzT1/K1UM1Gt21C/qx+BLC2jrtQ9c3S3ugGi+XR7hszKaER2oX3XemtkrflKPp+aUwCfdyS7bxdWrL947FSeFAo4G0Vn+VmdfBouK6En/33+seWCc0qUxeq2bJ3Vc9eyi7babZYSpxPGJw2sDLW2TZB+cpP6nt8wkAygGvWce1qsNiJYLBYneuxCf26xmgX+r28/3G/+G5ddpd+Z3aWbH+/Weesa9hUy2kCb++YpRdXreOHT6fOWRrpfK+oFNvB81K/bHt68DxInf+j8XmQ9uCbjseosCqD7LhcpWs+EctVSval44CoFCOtaDUVj1kvT4devqara6F8ZVBmrNAAsOl6bjrWcWmg88nq0D9TjzGkNmcsi2lViH2FfbW2qyuuW3C+9H5v0Qn096yEcM9Fe52zRlqD4O+YaQmbagymRHp6ATlVdcwmdM6KMF918DSKy7e/h8+D2fgsGAtXkhH3C+2OpJcsJy2LRteAtVZVxxqwlq8043la3Vqr8tXuKl+p7pJIr19dKOEAsL06LiUrpqrBmBLp6jGGJ7U3S0uge0/Rp75/fGan58Ze90teik2gf/jSSPiQWees9VI8Pmqvc9hyJb+YOmRVIv1o1TnbJzLZ8XKfnT4LLlTPgvSSwKzZrVuu4nbKzFTWla30XG5X9Ww6JNLzkGacTFd1qzJd7/IlkV4fEg4Ave2fSaSrxxielDwsaYLBkhXy+qpdYF9fAj03d6RZ55fsdc7bC3OsAI4JA+y4c5Y6CdPVTNTUOUsJ9b2iU1vL1TU7pRHcSHv69CzonjU7FSQjNiMNYJlSDrlB2Ur3R1r5pfMCdEIdWztL1UuCaXs1Z1e+2sGKD8M0X5WbaaEA6Hkdtz6Rrg3Zn3rslFXEWN++jOWupK/k/u6vdmF9kOUm9ImLSqCnfc7TfueWbKfLa/E4EQvzE0IBPW0kLlYds5PVXumpgyaZXq/O3XSwB2vT7evzcyA1/iXSr0/inO2UrQtVmUovQo9W9atk3/CkpHl63lnFpYzyla5hZ8WHiSDJ0E9pIGd6EXvKgBOAgbchO3WcPtrO6zH9Oa7nbDyOFPJd9HX6Kz1PHi/s+xSviAR6Spj/1KWRMGbJdtZ6MR6ftGQ79L2Tll6IrU+mt4Jl3gets5TsrM4dA34GpE6WWX1XWaqdXpav1CmdrWalHw1ehA6yTk3PNjPNyy1bqa00FdYOVEmHpW97U35OBQM5AYZZz6V3A1YP3J6zVR02LRRsQuozFJFAt8JC3+N7IT6TUzt5X0H3fvGyT6Cnpdo/Ysl21kp3wyPxofSgUMDAGwOdZHqoOmqt6vBCsj8kzalT+U+N5ybP6rM8LX3tbIe126h06tYjotMTy9ULgPTSqK1ObVz56gxU2ROuJtJb2q7apAAF1HHpmdyZ8NAKV1cPVMetdbZqBxr8xVal++bRQsoA/Zf6nBLoGRkJn/6fs009j18O4e5LI4od3dKS7YdiY+dZoYB6qWanpw5b59Po563rLCPb1rEb2n2cYp/T7M9PDHPJ4arcd2Y8lPiSRsKAYT+T9oSryXR16+Ytd9WnbbPMuUb5OtpVvpStjcuQQSdbv6/SPfVMZqf9CVtY9OVeWHEfMORn0dEG13Gd5dnbwbsVdl6eFgsoRw/EcnDK1dQO3KTz8X7Z34RrlmUCPS3Znmadv9+S7aw1HwtuSxggm0ZD56X//q7Dy8l1DZJ4LISrL/gXhWTo9226FhLo24tdKVs8pJnmndkJyiR1e0aNhaurv7TUq2vK7UKnTlV2Uba2bHldm7TtrgAoqo472lXHlTjw2eBJALYsuwT6e+LZ3nNxZDWJDpV0D/8do6SgiI5bSqp3kuljXZ9NeEmZXu4vhuoFvxeTtb1H03WRQN95HFO5boWrg2j21bxsdicNzE4gx3q1FZoxWK1Tly5WZXZRspw+1mP715WvUhIOnWT5Qle7VKIBoDl13Pr6LcfBz/PqMQB2KqsE+ocvjYQPmXXOWi/F46OxIbQkFNCITlwnEdD9uSeTDl3nZWTSjseF6p+93M/rPkzXLqcE+olc9uSulrLqHkBzYEhldLVcBgNZKPtZ1uqqS7vr1TonANfXo6H65wvKKjUpV+vLVKvG7dROebqw7nPBQDEANqjjNproMOz6bbmr77YYrr5fkSwHoCeySKDfkWadXxoJe1ZcMNZIS6ceEwagq1M3VnXkks5LzG6tG/yKGyXs5q/x552Xjh2dDlwIEuSl3WPtkFcC/eF4/01lHvPWuvK7Udm+VoLifFU+uy10/Vm6nkHyDa5Zl3bXm91/vpnyd71yeK0y+bY6VfmkoLLVukZZam2jXXq9ctXdDl3/zxLkAPSybuvum3UGkK3/+UZtxu5BkuFabcJwdQCldywADETtE+hpn/O037kl2+nyWrgyo+4JoQBgwC8IUqddAh0AAAAAoFC763piKWH+U5dGwpgl21nrxXh80pLtAAAAAAAAQK/VMoGelmr/iCXbWSvdDY/MzE0+KBQAAAAAAABAP9QugT5+OYS7L424MnRLS7YfmpmbfFYoAAAAAAAAgH6pTQI9LdmeZp2/35LtrDU/MzfZEgYAAAAAAACg33bV4STesxLCp9+UPGeNtGT7A5LnAAAAAAAAwKAMfQb6hy+NhA9JnLPWS/H46Mzc5JJQAAAAAAAAAIMytAT6HSsh3HNpJOxZcRFYY3ZmbvKYMAAAAAAAAACDNpQEelqqPe13frP4c9Vr8TgxMzf5hFAAAAAAAAAAwzDQBHpKmP/UpZEwZsl21noxHp+0ZDsAAAAAAAAwTANLoKel2j9iyXbWSnfDIzNzkw8KBQAAAAAAADBsA0mgj18O4e5LI6JNt7Rk+6GZuclnhQIAAAAAAACog74m0NOS7WnW+fst2c5a8zNzky1hAAAAAAAAAOpkV79+8XtWQvj0m5LnrJGWbH9A8hwAAAAAAACoo77MQP/wpZHwIYlz1nopHh+dmZtcEgoAAAAAAACgjnqaQL9jJYR7Lo2EPSsCyxqzM3OTx4QBAAAAAAAAqLOeJdDTUu1pv/ObxZSrXovHiZm5ySeEAgAAAAAAAKi7HSfQU8L8py6NhDFLtrPWi/H4pCXbAQAAAAAAgFzsKIGelmr/iCXbWSvdDY/MzE0+KBQAAAAAAABATradQL/rcgh3W7KdtdKS7Ydm5iafFQoAAAAAAAAgN9tKoKfE+bgl21lrfmZusiUMAAAAAAAAQK52bfU/+IjkOWulJdsfkDwHAAAAAAAAcrelGegpeT4mec5VL8XjozNzk0tCAQAAAAAAAORu0wl0yXPWmZ2ZmzwmDAAAAAAAAEApNrWEu+Q5XV6Lx3HJcwAAAAAAAKA0N5yBftflIHlOx4vx+KQl2wEAAAAAAIASXTeBvmclhL98aUSUiHdCeGRmbvJBoQAAAAAAAABKdc0E+s3xuEfynCtLth+amZt8VigAAAAAAACAkl0zgf7hSyPhjhUBarj5mbnJljAAAAAAAAAATbBroz98z0oI4/Y9b7I0dOIByXMAAAAAAACgSTacgW7f80Z7KR4fnZmbXBIKAAAAAAAAoEnelkBPM88t3d5YszNzk8eEAQAAAAAAAGiiNUu43xyu7H1O47wWj+OS5wAAAAAAAECTrZmB/uOXryTRaZQX4/FJS7YDAAAAAAAATbcmgf6hy2afN0haqP+RmbnJB4UCAAAAAAAAoCuB/n57nzdJWrL90Mzc5LNCAQAAAAAAAHDFWwn0u1bMPm+I+Zm5yZYwAAAAAAAAAKy1K/2/tO95moFO0dL6Ag9IngMAAAAAAABsbHUG+o9LnpfupXh8dGZuckkoAAAAAAAAADa2mkB/v+XbSzY7Mzd5TBgAAAAAAAAArm91Cff3mIFeotficVzyHAAAAAAAAGBzdu9ZubIHOkV5MR6ftGQ7AAAAAAAAwObtfveKIBQkXc1HZuYmHxQKAAAAAAAAgK3Zvcf+56VIS7YfmpmbfFYoAAAAAAAAALbODPQyzM/MTbaEAQAAAAAAAGD7dtn/PGtp+MMDkucAAAAAAAAAO7d7jxnouXopHh+dmZtcEgoAAAAAAACAndstBFmanZmbPCYMAAAAAAAAAL2zSwiy8lo8jkueAwAAAAAAAPSeGej5eDEen7RkOwAAAAAAAEB/SKDXX9ql/pGZuckHhQIAAAAAAACgfyTQ6y0t2X5oZm7yWaEAAAAAAAAA6C8J9Pqan5mbbAkDAAAAAAAAwGDsEoLaSUu2PyB5DgAAAAAAADBYu9+M/+9mcaiLl+Lx0Zm5ySWhAAAAAAAAABis3T8YCRf3rFjKvQZmZ+YmjwkDAAAAAAAAwHDsejOE14RhqFL8j0ueAwAAAAAAAAzX7osh/Gn8vFMohuLFeHzSku0AAAAAAAAAw7f70sjKr4WVkb8tFAO1Eo9HZuYmHxQKAAAAAAAAgHrYtRLCPxWGgUpLtn9c8hwAAAAAAACgXnZ/5an7fudTP3P68p0rYZdw9N38zNxkSxgAAAAAAAAA6mc1af5qCN8Sir5KS7Y/IHkOAAAAAAAAUF+rCfSLIytfEIq+eSked83MTZ4SCgAAAAAAAID6Wk2gf+Wp+x55TSz6YXZmbvJ98VgSCgAAAAAAAIB6e2vf85dHwu8IR8+k8QjHZ+YmjwkFAAAAAAAAQB7eSqBfGln5r4SjJ16Mxwdn5iafEAoAAAAAAACAfLyVQP/KU/f9zndHwitCsm0r8fj8zNzkByzZDgAAAAAAAJCfXd3/8PrIyt8Qkm1JS7Z/fGZu8kGhAAAAAAAAAMjT7u5/+MpT9/3KJ3/m9Cs/uhLuFJpNm5+Zm2wJAwAAAAAAAEDedq3/A7PQNy0t2f6A5DkAAAAAAABAGd6WQE+z0L8zEuzhfX0vxeOumbnJU0IBAAAAAAAAUIbdG/3hxZGVT7+2MvLvbhOfjczOzE0eEwYAAAAAAACAsuza6A+/8tR9v/P/7Vr5J8KzxmvxOC55DgAAAAAAAFCmXdf6H5596r6fs5T7W16Mxwdn5iafEAoAAAAAAACAMu263v84/6XJsQsj4WKD47MSj8/PzE1+IB4GEwAAAAAAAAAUbPeN/oVXRlZ+6qYwsnDnyvWT7QVKS7YfmpmbfNZtAgAAAAAAAFC+GybF037oF0ZW/v6bzYrL/Mzc5O2S5wAAAAAAAADNsalZ5V956r5HXtq18tnSk+grV5Zsf2BmbrLl1gAAAAAAAABolk0vy156Ev2NEL43EsJdM3OTp9wWAAAAAAAAAM2zeyv/ckqif+xTXwj/4eWRz99WUBBeHQnP/NqXJn/a7QAAAAAAAADQXLu2+h+kJPr3dq38xVdGwuXcv3z6Dq+OhL8peQ4AAAAAAADA7u38R1956r7fiR83feJnTv/Jj62EH83xi393JLzy+sjKx6rvAgAAAAAAAEDD7drJf/zMlybf80e7Vv6PnPZFT+eazvlff2nyXZLnAAAAAAAAAHTs2ukvePap+/6Ll3at/MU0o7vuXzadYzrXdM4uPQAAAAAAAADddvfil1Qzud91z6e+8I/fuTLyX+9Z6c3v7ZULI+HiqyMr//TZp+77OZccAAAAAAAAgI30NNFdJah/ri6JdIlzAAAAAAAAADarLwnuTiL9Y5/6wt+7dWXkv92zEu68eYBfKi3V/sORlV+UOAcAAAAAAABgs/o6Q/wrT933SPx45GOf+sJf2BXCP969MvKXfmQl3NHrZPqb8fj+SPjh6yMrX7scws9VS8oDAAAAAAAAwKYNZIn1KqF9oPPP/+mnvvDwbSsjx94RwvgtIdx850rYtZXf98pIuPxGCG/G46VLIyu/ZqY5AAAAAAAAADs1lD3Kf+up+x6KHw91/9nHPvWF/3IkhNb1/ruVENpfeeq+X3HZAIAhORmPPRmd76JLBgAAAACweSMrKyuiAAAAAAAAAEDj7RICAAAAAAAAAJBABwAAAAAAAIBVEugAAAAAAAAAECTQAQAAAAAAAGCVBDoAAAAAAAAABAl0AAAAAAAAAFglgQ4AAAAAAAAAQQIdAAAAAAAAAFZJoAMAAAAAAABAkEAHAAAAAAAAgFUS6AAAAAAAAAAQJNABAAAAAAAAYJUEOgAAAAAAAAAECXQAAAAAAAAAWCWBDgAAAAAAAABBAh0AAAAAAAAAVkmgAwAAAAAAAECQQAcAAAAAAACAVRLoAAAAAAAAABAk0AEAAAAAAABglQQ6AAAAAAAAAAQJdAAAAAAAAABYJYEOAAAAAAAAAEECHQAAAAAAAABWSaADAAAAAAAAQJBABwAAAAAAAIBVEugAAAAAAAAAECTQAQAAAAAAAGCVBDoAAAAAAAAABAl0AAAAAAAAAFglgQ4AAAAAAAAAQQIdAAAAAAAAAFZJoAMAAAAAAABAkEAHAAAAAAAAgFUS6AAAAAAAAAAQJNABAAAAAOD/Z88OaAAAABAG2T+123NADQAAItABAAAAAAAAYAIdAAAAAAAAACLQAQAAAAAAAGACHQAAAAAAAAAi0AEAAAAAAABgAh0AAAAAAAAAItABAAAAAAAAYAIdAAAAAAAAACLQAQAAAAAAAGACHQAAAAAAAAAi0AEAAAAAAABgAh0AAAAAAAAAItABAAAAAAAAYAIdAAAAAAAAACLQAQAAAAAAAGACHQAAAAAAAAAi0AEAAAAAAABgAh0AAAAAAAAAItABAAAAAAAAYAIdAAAAAAAAACLQAQAAAAAAAGACHQAAAAAAAAAi0AEAAAAAAABgAh0AAAAAAAAAItABAAAAAAAAYAIdAAAAAAAAACLQAQAAAAAAAGACHQAAAAAAAAAi0AEAAAAAAABgAh0AAAAAAAAAItABAAAAAAAAYAIdAAAAAAAAACLQAQAAAAAAAGACHQAAAAAAAAAi0AEAAAAAAABgAh0AAAAAAAAAItABAAAAAAAAYAIdAAAAAAAAACLQAQAAAAAAAGACHQAAAAAAAAAi0AEAAAAAAABgAh0AAAAAAAAAItABAAAAAAAAYAIdAAAAAAAAACLQAQAAAAAAAGACHQAAAAAAAAAi0AEAAAAAAABgAh0AAAAAAAAAItABAAAAAAAAYAIdAAAAAAAAACLQAQAAAAAAAGACHQAAAAAAAAAi0AEAAAAAAABgAh0AAAAAAAAAItABAAAAAAAAYAIdAAAAAAAAACLQAQAAAAAAAGACHQAAAAAAAAAi0AEAAAAAAABgAh0AAAAAAAAAItABAAAAAAAAYAIdAAAAAAAAACLQAQAAAAAAAGACHQAAAAAAAAAi0AEAAAAAAABgAh0AAAAAAAAAItABAAAAAAAAYAIdAAAAAAAAACLQAQAAAAAAAGACHQAAAAAAAAAi0AEAAAAAAABgAh0AAAAAAAAAItABAAAAAAAAYAIdAAAAAAAAACLQAQAAAAAAAGACHQAAAAAAAAAi0AEAAAAAAABgAh0AAAAAAAAAItABAAAAAAAAYAIdAAAAAAAAACLQAQAAAAAAAGACHQAAAAAAAAAi0AEAAAAAAABgAh0AAAAAAAAAItABAAAAAAAAYAIdAAAAAAAAACLQAQAAAAAAAGACHQAAAAAAAAAi0AEAAAAAAABgAh0AAAAAAAAAItABAAAAAAAAYAIdAAAAAAAAACLQAQAAAAAAAGACHQAAAAAAAAAi0AEAAAAAAABgAh0AAAAAAAAAItABAAAAAAAAYAIdAAAAAAAAACLQAQAAAAAAAGACHQAAAAAAAAAi0AEAAAAAAABgAh0AAAAAAAAAItABAAAAAAAAYAIdAAAAAAAAACLQAQAAAAAAAGACHQAAAAAAAAAi0AEAAAAAAABgAh0AAAAAAAAAItABAAAAAAAAYAIdAAAAAAAAACLQAQAAAAAAAGACHQAAAAAAAAAi0AEAAAAAAABgAh0AAAAAAAAAItABAAAAAAAAYAIdAAAAAAAAACLQAQAAAAAAAGACHQAAAAAAAAAi0AEAAAAAAABgAh0AAAAAAAAAItABAAAAAAAAYAIdAAAAAAAAACLQAQAAAAAAAGACHQAAAAAAAAAi0AEAAAAAAABgAh0AAAAAAAAAItABAAAAAAAAYAIdAAAAAAAAACLQAQAAAAAAAGACHQAAAAAAAAAi0AEAAAAAAABgAh0AAAAAAAAAItABAAAAAAAAYAIdAAAAAAAAACLQAQAAAAAAAGACHQAAAAAAAAAi0AEAAAAAAABgAh0AAAAAAAAAItABAAAAAAAAYAIdAAAAAAAAACLQAQAAAAAAAGACHQAAAAAAAAAi0AEAAAAAAABgAh0AAAAAAAAAItABAAAAAAAAYAIdAAAAAAAAACLQAQAAAAAAAGACHQAAAAAAAAAi0AEAAAAAAABgAh0AAAAAAAAAItABAAAAAAAAYAIdAAAAAAAAACLQAQAAAAAAAGACHQAAAAAAAAAi0AEAAAAAAABgAh0AAAAAAAAAItABAAAAAAAAYAIdAAAAAAAAACLQAQAAAAAAAGACHQAAAAAAAAAi0AEAAAAAAABgAh0AAAAAAAAAItABAAAAAAAAYAIdAAAAAAAAACLQAQAAAAAAAGACHQAAAAAAAAAi0AEAAAAAAABgAh0AAAAAAAAAItABAAAAAAAAYAIdAAAAAAAAACLQAQAAAAAAAGACHQAAAAAAAAAi0AEAAAAAAABgAh0AAAAAAAAAItABAAAAAAAAYAIdAAAAAAAAACLQAQAAAAAAAGACHQAAAAAAAAAi0AEAAAAAAABgAh0AAAAAAAAAItABAAAAAAAAYAIdAAAAAAAAACLQAQAAAAAAAGACHQAAAAAAAAAi0AEAAAAAAABgAh0AAAAAAAAAItABAAAAAAAAYAIdAAAAAAAAACLQAQAAAAAAAGACHQAAAAAAAAAi0AEAAAAAAABgAh0AAAAAAAAAItABAAAAAAAAYAIdAAAAAAAAACLQAQAAAAAAAGACHQAAAAAAAAAi0AEAAAAAAABgAh0AAAAAAAAAItABAAAAAAAAYAIdAAAAAAAAACLQAQAAAAAAAGACHQAAAAAAAAAi0AEAAAAAAABgAh0AAAAAAAAAItABAAAAAAAAYAIdAAAAAAAAACLQAQAAAAAAAGACHQAAAAAAAAAi0AEAAAAAAABgAh0AAAAAAAAAItABAAAAAAAAYAIdAAAAAAAAACLQAQAAAAAAAGACHQAAAAAAAAAi0AEAAAAAAABgAh0AAAAAAAAAcgEGAMIBBfTkkX2uAAAAAElFTkSuQmCC;clipPath=inset(24.63% 0% 23.13% 0%);" parent="1" vertex="1">
          <mxGeometry x="920" y="236" width="558.04" height="130.20933333333332" as="geometry" />
        </mxCell>
        <mxCell id="bHwm33LehQoq67QtOV6r-8" value="" style="group" parent="1" vertex="1" connectable="0">
          <mxGeometry x="1041" y="338" width="321.01" height="240" as="geometry" />
        </mxCell>
        <mxCell id="bHwm33LehQoq67QtOV6r-1" value="" style="triangle;whiteSpace=wrap;html=1;rounded=0;strokeColor=#00A3E0;strokeWidth=4;fontSize=18;fontColor=#000000;fillColor=#00A3E0;rotation=-90;" parent="bHwm33LehQoq67QtOV6r-8" vertex="1">
          <mxGeometry x="40.50636507639247" y="-40.50682586732353" width="239.99726984721505" height="321.01365173464706" as="geometry" />
        </mxCell>
        <mxCell id="bHwm33LehQoq67QtOV6r-2" value="" style="endArrow=none;html=1;rounded=0;strokeColor=#FFFFFF;strokeWidth=3;fontSize=18;fontColor=#000000;" parent="bHwm33LehQoq67QtOV6r-8" edge="1">
          <mxGeometry width="50" height="50" relative="1" as="geometry">
            <mxPoint x="100.19257292008047" y="80.15446916878889" as="sourcePoint" />
            <mxPoint x="225.43642016636227" y="80.15446916878889" as="targetPoint" />
          </mxGeometry>
        </mxCell>
        <mxCell id="bHwm33LehQoq67QtOV6r-3" value="" style="endArrow=none;html=1;rounded=0;strokeColor=#FFFFFF;strokeWidth=3;fontSize=18;fontColor=#000000;" parent="bHwm33LehQoq67QtOV6r-8" edge="1">
          <mxGeometry width="50" height="50" relative="1" as="geometry">
            <mxPoint x="50.29041442327193" y="160.40662964973072" as="sourcePoint" />
            <mxPoint x="270.71958557672804" y="160.3114432430176" as="targetPoint" />
          </mxGeometry>
        </mxCell>
        <mxCell id="bHwm33LehQoq67QtOV6r-4" value="UI" style="text;html=1;strokeColor=none;fillColor=none;align=center;verticalAlign=middle;whiteSpace=wrap;rounded=0;strokeWidth=4;fontSize=20;fontColor=#FFFFFF;" parent="bHwm33LehQoq67QtOV6r-8" vertex="1">
          <mxGeometry x="145.47573833044618" y="40.075982131674536" width="30.058523339107634" height="15.029432638917882" as="geometry" />
        </mxCell>
        <mxCell id="bHwm33LehQoq67QtOV6r-5" value="Service" style="text;html=1;strokeColor=none;fillColor=none;align=center;verticalAlign=middle;whiteSpace=wrap;rounded=0;strokeWidth=4;fontSize=20;fontColor=#FFFFFF;" parent="bHwm33LehQoq67QtOV6r-8" vertex="1">
          <mxGeometry x="145.47573833044618" y="112.48778858598088" width="30.058523339107634" height="15.029432638917882" as="geometry" />
        </mxCell>
        <mxCell id="bHwm33LehQoq67QtOV6r-6" value="Unit" style="text;html=1;strokeColor=none;fillColor=none;align=center;verticalAlign=middle;whiteSpace=wrap;rounded=0;strokeWidth=4;fontSize=20;fontColor=#FFFFFF;" parent="bHwm33LehQoq67QtOV6r-8" vertex="1">
          <mxGeometry x="145.47573833044618" y="195.38011940049267" width="30.058523339107634" height="15.029432638917882" as="geometry" />
        </mxCell>
      </root>
    </mxGraphModel>
  </diagram>
  <diagram id="36sCerdlLbyP5QrQqL0T" name="test-pyramid">
    <mxGraphModel dx="1416" dy="818" grid="1" gridSize="10" guides="1" tooltips="1" connect="1" arrows="1" fold="1" page="1" pageScale="1" pageWidth="1100" pageHeight="850" math="0" shadow="0">
      <root>
        <mxCell id="0" />
        <mxCell id="1" parent="0" />
        <mxCell id="nTMtdDJBs6kvZ2ww08L1-1" value="" style="triangle;whiteSpace=wrap;html=1;rounded=0;strokeColor=#00A3E0;strokeWidth=4;fontSize=18;fontColor=#000000;fillColor=#00A3E0;rotation=-90;" parent="1" vertex="1">
          <mxGeometry x="240.86" y="-0.85" width="479.06" height="640.77" as="geometry" />
        </mxCell>
        <mxCell id="7JRj4x7jK_AmKWuyVGXM-3" value="" style="endArrow=none;html=1;rounded=0;strokeColor=#FFFFFF;strokeWidth=3;fontSize=18;fontColor=#000000;" parent="1" edge="1">
          <mxGeometry width="50" height="50" relative="1" as="geometry">
            <mxPoint x="360" y="240" as="sourcePoint" />
            <mxPoint x="610" y="240" as="targetPoint" />
          </mxGeometry>
        </mxCell>
        <mxCell id="7JRj4x7jK_AmKWuyVGXM-4" value="" style="endArrow=none;html=1;rounded=0;strokeColor=#FFFFFF;strokeWidth=3;fontSize=18;fontColor=#000000;" parent="1" edge="1">
          <mxGeometry width="50" height="50" relative="1" as="geometry">
            <mxPoint x="260.3899999999999" y="400.19" as="sourcePoint" />
            <mxPoint x="700.39" y="400" as="targetPoint" />
          </mxGeometry>
        </mxCell>
        <mxCell id="X6r0knYcW0PZUJOxry8O-1" value="UI" style="text;html=1;strokeColor=none;fillColor=none;align=center;verticalAlign=middle;whiteSpace=wrap;rounded=0;strokeWidth=4;fontSize=40;fontColor=#FFFFFF;" parent="1" vertex="1">
          <mxGeometry x="450.39" y="160" width="60" height="30" as="geometry" />
        </mxCell>
        <mxCell id="X6r0knYcW0PZUJOxry8O-2" value="Service" style="text;html=1;strokeColor=none;fillColor=none;align=center;verticalAlign=middle;whiteSpace=wrap;rounded=0;strokeWidth=4;fontSize=40;fontColor=#FFFFFF;" parent="1" vertex="1">
          <mxGeometry x="450.39" y="304.53999999999996" width="60" height="30" as="geometry" />
        </mxCell>
        <mxCell id="X6r0knYcW0PZUJOxry8O-3" value="Unit" style="text;html=1;strokeColor=none;fillColor=none;align=center;verticalAlign=middle;whiteSpace=wrap;rounded=0;strokeWidth=4;fontSize=40;fontColor=#FFFFFF;" parent="1" vertex="1">
          <mxGeometry x="450.39" y="470" width="60" height="30" as="geometry" />
        </mxCell>
        <mxCell id="X6r0knYcW0PZUJOxry8O-4" value="" style="endArrow=classic;startArrow=classic;html=1;rounded=0;strokeColor=#00A3E0;strokeWidth=3;fontSize=18;fontColor=#FFFFFF;" parent="1" edge="1">
          <mxGeometry width="50" height="50" relative="1" as="geometry">
            <mxPoint x="140" y="560" as="sourcePoint" />
            <mxPoint x="140" y="80" as="targetPoint" />
          </mxGeometry>
        </mxCell>
        <mxCell id="X6r0knYcW0PZUJOxry8O-5" value="" style="endArrow=classic;startArrow=classic;html=1;rounded=0;strokeColor=#00A3E0;strokeWidth=3;fontSize=18;fontColor=#FFFFFF;" parent="1" edge="1">
          <mxGeometry width="50" height="50" relative="1" as="geometry">
            <mxPoint x="820" y="559.54" as="sourcePoint" />
            <mxPoint x="820" y="79.53999999999999" as="targetPoint" />
          </mxGeometry>
        </mxCell>
        <mxCell id="X6r0knYcW0PZUJOxry8O-6" value="Slow" style="text;html=1;strokeColor=none;fillColor=none;align=center;verticalAlign=middle;whiteSpace=wrap;rounded=0;strokeWidth=4;fontSize=32;fontColor=#00A3E0;" parent="1" vertex="1">
          <mxGeometry x="70" y="80" width="50" height="30" as="geometry" />
        </mxCell>
        <mxCell id="X6r0knYcW0PZUJOxry8O-7" value="Quick" style="text;html=1;strokeColor=none;fillColor=none;align=center;verticalAlign=middle;whiteSpace=wrap;rounded=0;strokeWidth=4;fontSize=32;fontColor=#00A3E0;" parent="1" vertex="1">
          <mxGeometry x="60" y="530" width="60" height="30" as="geometry" />
        </mxCell>
        <mxCell id="X6r0knYcW0PZUJOxry8O-8" value="More Integration" style="text;html=1;strokeColor=none;fillColor=none;align=center;verticalAlign=middle;whiteSpace=wrap;rounded=0;strokeWidth=4;fontSize=32;fontColor=#00A3E0;" parent="1" vertex="1">
          <mxGeometry x="840" y="80" width="140" height="30" as="geometry" />
        </mxCell>
        <mxCell id="X6r0knYcW0PZUJOxry8O-9" value="More Isolation" style="text;html=1;strokeColor=none;fillColor=none;align=center;verticalAlign=middle;whiteSpace=wrap;rounded=0;strokeWidth=4;fontSize=32;fontColor=#00A3E0;" parent="1" vertex="1">
          <mxGeometry x="840" y="530" width="120" height="30" as="geometry" />
        </mxCell>
      </root>
    </mxGraphModel>
  </diagram>
  <diagram id="692fAsG-bisTWtfbOM5Z" name="ui-tests-scope">
    <mxGraphModel dx="1416" dy="818" grid="1" gridSize="10" guides="1" tooltips="1" connect="1" arrows="1" fold="1" page="1" pageScale="1" pageWidth="850" pageHeight="1100" math="0" shadow="0">
      <root>
        <mxCell id="0" />
        <mxCell id="1" parent="0" />
        <mxCell id="WW_x3ZccFMUumgvUnaIz-1" value="&lt;font style=&quot;font-size: 30px;&quot;&gt;UI&lt;/font&gt;" style="rounded=0;whiteSpace=wrap;html=1;fillColor=#00A3E0;strokeColor=none;fontColor=#FFFFFF;" parent="1" vertex="1">
          <mxGeometry x="200" y="120" width="200" height="120" as="geometry" />
        </mxCell>
        <mxCell id="WW_x3ZccFMUumgvUnaIz-2" value="&lt;span style=&quot;font-size: 30px;&quot;&gt;Order API&lt;/span&gt;" style="rounded=0;whiteSpace=wrap;html=1;fillColor=#00A3E0;strokeColor=none;fontColor=#FFFFFF;" parent="1" vertex="1">
          <mxGeometry x="320" y="290" width="200" height="120" as="geometry" />
        </mxCell>
        <mxCell id="WW_x3ZccFMUumgvUnaIz-4" value="&lt;i style=&quot;font-size: 24px;&quot;&gt;&lt;font style=&quot;font-size: 24px;&quot;&gt;SQL Server&lt;/font&gt;&lt;/i&gt;" style="shape=cylinder3;whiteSpace=wrap;html=1;boundedLbl=1;backgroundOutline=1;size=15;fontSize=24;fontColor=#FFFFFF;fillColor=#00A3E0;strokeColor=#00539F;" parent="1" vertex="1">
          <mxGeometry x="370" y="450" width="100" height="110" as="geometry" />
        </mxCell>
        <mxCell id="WW_x3ZccFMUumgvUnaIz-5" value="" style="endArrow=classic;html=1;rounded=0;fontSize=20;fontColor=#FFFFFF;entryX=0.5;entryY=0;entryDx=0;entryDy=0;strokeColor=#00539F;strokeWidth=2;" parent="1" source="WW_x3ZccFMUumgvUnaIz-1" target="WW_x3ZccFMUumgvUnaIz-2" edge="1">
          <mxGeometry width="50" height="50" relative="1" as="geometry">
            <mxPoint x="150" y="330" as="sourcePoint" />
            <mxPoint x="200" y="280" as="targetPoint" />
          </mxGeometry>
        </mxCell>
        <mxCell id="WW_x3ZccFMUumgvUnaIz-6" value="" style="endArrow=classic;html=1;rounded=0;fontSize=20;fontColor=#FFFFFF;entryX=0.5;entryY=0;entryDx=0;entryDy=0;strokeColor=#00539F;strokeWidth=2;exitX=0.5;exitY=1;exitDx=0;exitDy=0;entryPerimeter=0;" parent="1" source="WW_x3ZccFMUumgvUnaIz-2" target="WW_x3ZccFMUumgvUnaIz-4" edge="1">
          <mxGeometry width="50" height="50" relative="1" as="geometry">
            <mxPoint x="330" y="260" as="sourcePoint" />
            <mxPoint x="330" y="340" as="targetPoint" />
          </mxGeometry>
        </mxCell>
        <mxCell id="WW_x3ZccFMUumgvUnaIz-8" value="&lt;span style=&quot;font-size: 30px;&quot;&gt;ZIP Code API&lt;br&gt;&lt;/span&gt;&lt;i&gt;&lt;font style=&quot;font-size: 18px;&quot;&gt;&amp;lt;&amp;lt;external&amp;gt;&amp;gt;&lt;/font&gt;&lt;/i&gt;" style="rounded=0;whiteSpace=wrap;html=1;fillColor=#ADD8E6;strokeColor=none;fontColor=#00539F;" parent="1" vertex="1">
          <mxGeometry x="560" y="210" width="200" height="120" as="geometry" />
        </mxCell>
        <mxCell id="WW_x3ZccFMUumgvUnaIz-9" value="" style="endArrow=classic;html=1;rounded=0;fontSize=20;fontColor=#FFFFFF;entryX=0;entryY=0.25;entryDx=0;entryDy=0;strokeColor=#00539F;strokeWidth=2;exitX=1;exitY=0.5;exitDx=0;exitDy=0;" parent="1" source="WW_x3ZccFMUumgvUnaIz-1" target="WW_x3ZccFMUumgvUnaIz-8" edge="1">
          <mxGeometry width="50" height="50" relative="1" as="geometry">
            <mxPoint x="350" y="260" as="sourcePoint" />
            <mxPoint x="350" y="300" as="targetPoint" />
          </mxGeometry>
        </mxCell>
        <mxCell id="WW_x3ZccFMUumgvUnaIz-10" value="" style="endArrow=classic;html=1;rounded=0;fontSize=20;fontColor=#FFFFFF;entryX=0;entryY=0.75;entryDx=0;entryDy=0;strokeColor=#00539F;strokeWidth=2;exitX=1;exitY=0.5;exitDx=0;exitDy=0;" parent="1" source="WW_x3ZccFMUumgvUnaIz-2" target="WW_x3ZccFMUumgvUnaIz-8" edge="1">
          <mxGeometry width="50" height="50" relative="1" as="geometry">
            <mxPoint x="450" y="200" as="sourcePoint" />
            <mxPoint x="490" y="250" as="targetPoint" />
          </mxGeometry>
        </mxCell>
        <mxCell id="Hskk1C1pNJzvfnvEUyjj-1" value="&lt;span style=&quot;font-size: 30px;&quot;&gt;Product API&lt;/span&gt;" style="rounded=0;whiteSpace=wrap;html=1;fillColor=#00A3E0;strokeColor=none;fontColor=#FFFFFF;" parent="1" vertex="1">
          <mxGeometry x="80" y="290" width="200" height="120" as="geometry" />
        </mxCell>
        <mxCell id="Hskk1C1pNJzvfnvEUyjj-2" value="&lt;i style=&quot;font-size: 24px;&quot;&gt;&lt;font style=&quot;font-size: 24px;&quot;&gt;SQL Server&lt;/font&gt;&lt;/i&gt;" style="shape=cylinder3;whiteSpace=wrap;html=1;boundedLbl=1;backgroundOutline=1;size=15;fontSize=24;fontColor=#FFFFFF;fillColor=#00A3E0;strokeColor=#00539F;" parent="1" vertex="1">
          <mxGeometry x="130" y="450" width="100" height="110" as="geometry" />
        </mxCell>
        <mxCell id="Hskk1C1pNJzvfnvEUyjj-4" value="" style="endArrow=classic;html=1;rounded=0;fontSize=20;fontColor=#FFFFFF;strokeColor=#00539F;strokeWidth=2;" parent="1" source="Hskk1C1pNJzvfnvEUyjj-1" target="Hskk1C1pNJzvfnvEUyjj-2" edge="1">
          <mxGeometry width="50" height="50" relative="1" as="geometry">
            <mxPoint x="420" y="420" as="sourcePoint" />
            <mxPoint x="420" y="460" as="targetPoint" />
          </mxGeometry>
        </mxCell>
        <mxCell id="Hskk1C1pNJzvfnvEUyjj-5" value="" style="endArrow=classic;html=1;rounded=0;fontSize=20;fontColor=#FFFFFF;strokeColor=#00539F;strokeWidth=2;" parent="1" source="WW_x3ZccFMUumgvUnaIz-1" target="Hskk1C1pNJzvfnvEUyjj-1" edge="1">
          <mxGeometry width="50" height="50" relative="1" as="geometry">
            <mxPoint x="370" y="250" as="sourcePoint" />
            <mxPoint x="420" y="300" as="targetPoint" />
          </mxGeometry>
        </mxCell>
        <mxCell id="Hskk1C1pNJzvfnvEUyjj-7" value="" style="endArrow=classic;html=1;rounded=0;fontSize=20;fontColor=#FFFFFF;strokeColor=#00539F;strokeWidth=2;" parent="1" source="WW_x3ZccFMUumgvUnaIz-2" target="Hskk1C1pNJzvfnvEUyjj-1" edge="1">
          <mxGeometry width="50" height="50" relative="1" as="geometry">
            <mxPoint x="375.4545454545455" y="250" as="sourcePoint" />
            <mxPoint x="430" y="300" as="targetPoint" />
          </mxGeometry>
        </mxCell>
      </root>
    </mxGraphModel>
  </diagram>
  <diagram name="service-tests-scope" id="9piHuzJo_sd1mwmXzwb2">
    <mxGraphModel dx="1416" dy="818" grid="1" gridSize="10" guides="1" tooltips="1" connect="1" arrows="1" fold="1" page="1" pageScale="1" pageWidth="850" pageHeight="1100" math="0" shadow="0">
      <root>
        <mxCell id="sWqvC_U9Wl_9yibyVv1V-0" />
        <mxCell id="sWqvC_U9Wl_9yibyVv1V-1" parent="sWqvC_U9Wl_9yibyVv1V-0" />
        <mxCell id="sWqvC_U9Wl_9yibyVv1V-3" value="&lt;span style=&quot;font-size: 30px;&quot;&gt;Order API&lt;/span&gt;" style="rounded=0;whiteSpace=wrap;html=1;fillColor=#00A3E0;strokeColor=none;fontColor=#FFFFFF;" parent="sWqvC_U9Wl_9yibyVv1V-1" vertex="1">
          <mxGeometry x="330" y="280" width="200" height="120" as="geometry" />
        </mxCell>
        <mxCell id="sWqvC_U9Wl_9yibyVv1V-4" value="&lt;i style=&quot;font-size: 24px;&quot;&gt;&lt;font style=&quot;font-size: 24px;&quot;&gt;SQL Server&lt;/font&gt;&lt;/i&gt;" style="shape=cylinder3;whiteSpace=wrap;html=1;boundedLbl=1;backgroundOutline=1;size=15;fontSize=24;fontColor=#FFFFFF;fillColor=#00A3E0;strokeColor=#00539F;" parent="sWqvC_U9Wl_9yibyVv1V-1" vertex="1">
          <mxGeometry x="380" y="440" width="100" height="110" as="geometry" />
        </mxCell>
        <mxCell id="sWqvC_U9Wl_9yibyVv1V-6" value="" style="endArrow=classic;html=1;rounded=0;fontSize=20;fontColor=#FFFFFF;entryX=0.5;entryY=0;entryDx=0;entryDy=0;strokeColor=#00539F;strokeWidth=2;exitX=0.5;exitY=1;exitDx=0;exitDy=0;entryPerimeter=0;" parent="sWqvC_U9Wl_9yibyVv1V-1" source="sWqvC_U9Wl_9yibyVv1V-3" target="sWqvC_U9Wl_9yibyVv1V-4" edge="1">
          <mxGeometry width="50" height="50" relative="1" as="geometry">
            <mxPoint x="340" y="250" as="sourcePoint" />
            <mxPoint x="340" y="330" as="targetPoint" />
          </mxGeometry>
        </mxCell>
        <mxCell id="sWqvC_U9Wl_9yibyVv1V-7" value="&lt;span style=&quot;font-size: 30px;&quot;&gt;ZIP Code API&lt;br&gt;&lt;/span&gt;&lt;i&gt;&lt;font style=&quot;font-size: 18px;&quot;&gt;&amp;lt;&amp;lt;external&amp;gt;&amp;gt;&lt;/font&gt;&lt;/i&gt;" style="rounded=0;whiteSpace=wrap;html=1;fillColor=#ADD8E6;strokeColor=none;fontColor=#00539F;" parent="sWqvC_U9Wl_9yibyVv1V-1" vertex="1">
          <mxGeometry x="560" y="280" width="200" height="120" as="geometry" />
        </mxCell>
        <mxCell id="sWqvC_U9Wl_9yibyVv1V-9" value="" style="endArrow=classic;html=1;rounded=0;fontSize=20;fontColor=#FFFFFF;strokeColor=#00539F;strokeWidth=2;exitX=1;exitY=0.5;exitDx=0;exitDy=0;" parent="sWqvC_U9Wl_9yibyVv1V-1" source="sWqvC_U9Wl_9yibyVv1V-3" target="sWqvC_U9Wl_9yibyVv1V-7" edge="1">
          <mxGeometry width="50" height="50" relative="1" as="geometry">
            <mxPoint x="460" y="190" as="sourcePoint" />
            <mxPoint x="500" y="240" as="targetPoint" />
          </mxGeometry>
        </mxCell>
        <mxCell id="sWqvC_U9Wl_9yibyVv1V-10" value="&lt;span style=&quot;font-size: 30px;&quot;&gt;Product API&lt;/span&gt;" style="rounded=0;whiteSpace=wrap;html=1;fillColor=#00A3E0;strokeColor=none;fontColor=#330000;" parent="sWqvC_U9Wl_9yibyVv1V-1" vertex="1">
          <mxGeometry x="90" y="280" width="200" height="120" as="geometry" />
        </mxCell>
        <mxCell id="sWqvC_U9Wl_9yibyVv1V-11" value="&lt;i style=&quot;font-size: 24px;&quot;&gt;&lt;font style=&quot;font-size: 24px;&quot;&gt;SQL Server&lt;/font&gt;&lt;/i&gt;" style="shape=cylinder3;whiteSpace=wrap;html=1;boundedLbl=1;backgroundOutline=1;size=15;fontSize=24;fontColor=#330000;fillColor=#00A3E0;strokeColor=#00539F;" parent="sWqvC_U9Wl_9yibyVv1V-1" vertex="1">
          <mxGeometry x="140" y="440" width="100" height="110" as="geometry" />
        </mxCell>
        <mxCell id="sWqvC_U9Wl_9yibyVv1V-12" value="" style="endArrow=classic;html=1;rounded=0;fontSize=20;fontColor=#FFFFFF;strokeColor=#00539F;strokeWidth=2;" parent="sWqvC_U9Wl_9yibyVv1V-1" source="sWqvC_U9Wl_9yibyVv1V-10" target="sWqvC_U9Wl_9yibyVv1V-11" edge="1">
          <mxGeometry width="50" height="50" relative="1" as="geometry">
            <mxPoint x="430" y="410" as="sourcePoint" />
            <mxPoint x="430" y="450" as="targetPoint" />
          </mxGeometry>
        </mxCell>
        <mxCell id="sWqvC_U9Wl_9yibyVv1V-14" value="" style="endArrow=classic;html=1;rounded=0;fontSize=20;fontColor=#FFFFFF;strokeColor=#00539F;strokeWidth=2;" parent="sWqvC_U9Wl_9yibyVv1V-1" source="sWqvC_U9Wl_9yibyVv1V-3" target="sWqvC_U9Wl_9yibyVv1V-10" edge="1">
          <mxGeometry width="50" height="50" relative="1" as="geometry">
            <mxPoint x="385.4545454545455" y="240" as="sourcePoint" />
            <mxPoint x="440" y="290" as="targetPoint" />
          </mxGeometry>
        </mxCell>
        <mxCell id="r0GuIbLco8n2TfPO4LFj-2" value="" style="ellipse;whiteSpace=wrap;html=1;fillColor=#f8cecc;strokeColor=#b85450;opacity=40;rotation=-5;" parent="sWqvC_U9Wl_9yibyVv1V-1" vertex="1">
          <mxGeometry x="70" y="202.20000000000005" width="740" height="377.82" as="geometry" />
        </mxCell>
        <mxCell id="_o6L-scP38aAHxpWHPR1-0" value="&lt;font style=&quot;font-size: 30px;&quot;&gt;UI&lt;/font&gt;" style="rounded=0;whiteSpace=wrap;html=1;fillColor=#00A3E0;strokeColor=none;fontColor=#FFFFFF;" parent="sWqvC_U9Wl_9yibyVv1V-1" vertex="1">
          <mxGeometry x="200" y="60" width="200" height="120" as="geometry" />
        </mxCell>
        <mxCell id="_9RqBAPcMhhPs6lbqJ3S-0" value="" style="endArrow=classic;html=1;rounded=0;fontSize=20;fontColor=#FFFFFF;strokeColor=#00539F;strokeWidth=2;" parent="sWqvC_U9Wl_9yibyVv1V-1" source="_o6L-scP38aAHxpWHPR1-0" target="sWqvC_U9Wl_9yibyVv1V-3" edge="1">
          <mxGeometry width="50" height="50" relative="1" as="geometry">
            <mxPoint x="125.29705882352928" y="120" as="sourcePoint" />
            <mxPoint x="90.0029411764705" y="170" as="targetPoint" />
          </mxGeometry>
        </mxCell>
        <mxCell id="_9RqBAPcMhhPs6lbqJ3S-1" value="" style="endArrow=classic;html=1;rounded=0;fontSize=20;fontColor=#FFFFFF;strokeColor=#00539F;strokeWidth=2;" parent="sWqvC_U9Wl_9yibyVv1V-1" source="_o6L-scP38aAHxpWHPR1-0" target="sWqvC_U9Wl_9yibyVv1V-10" edge="1">
          <mxGeometry width="50" height="50" relative="1" as="geometry">
            <mxPoint x="135.29705882352937" y="130" as="sourcePoint" />
            <mxPoint x="100.00294117647059" y="180" as="targetPoint" />
          </mxGeometry>
        </mxCell>
        <mxCell id="_9RqBAPcMhhPs6lbqJ3S-2" value="" style="endArrow=classic;html=1;rounded=0;fontSize=20;fontColor=#FFFFFF;strokeColor=#00539F;strokeWidth=2;" parent="sWqvC_U9Wl_9yibyVv1V-1" source="_o6L-scP38aAHxpWHPR1-0" target="sWqvC_U9Wl_9yibyVv1V-7" edge="1">
          <mxGeometry width="50" height="50" relative="1" as="geometry">
            <mxPoint x="345.4545454545455" y="190" as="sourcePoint" />
            <mxPoint x="404.5454545454545" y="290" as="targetPoint" />
          </mxGeometry>
        </mxCell>
        <mxCell id="r0GuIbLco8n2TfPO4LFj-0" value="" style="ellipse;whiteSpace=wrap;html=1;fillColor=#ffe6cc;strokeColor=#d79b00;opacity=40;" parent="sWqvC_U9Wl_9yibyVv1V-1" vertex="1">
          <mxGeometry x="70.3" y="200" width="240" height="380" as="geometry" />
        </mxCell>
      </root>
    </mxGraphModel>
  </diagram>
  <diagram name="test-pyramid-extended" id="HTuIgWva8YDWldhWkuj1">
    <mxGraphModel dx="1416" dy="818" grid="1" gridSize="10" guides="1" tooltips="1" connect="1" arrows="1" fold="1" page="1" pageScale="1" pageWidth="1100" pageHeight="850" math="0" shadow="0">
      <root>
        <mxCell id="rsh4wRF1unET1UeAmr_m-0" />
        <mxCell id="rsh4wRF1unET1UeAmr_m-1" parent="rsh4wRF1unET1UeAmr_m-0" />
        <mxCell id="rsh4wRF1unET1UeAmr_m-2" value="" style="triangle;whiteSpace=wrap;html=1;rounded=0;strokeColor=#00A3E0;strokeWidth=4;fontSize=18;fontColor=#000000;fillColor=#00A3E0;rotation=-90;" parent="rsh4wRF1unET1UeAmr_m-1" vertex="1">
          <mxGeometry x="240.86" y="-0.85" width="479.06" height="640.77" as="geometry" />
        </mxCell>
        <mxCell id="rsh4wRF1unET1UeAmr_m-3" value="" style="endArrow=none;html=1;rounded=0;strokeColor=#FFFFFF;strokeWidth=3;fontSize=40;fontColor=#000000;" parent="rsh4wRF1unET1UeAmr_m-1" edge="1">
          <mxGeometry width="50" height="50" relative="1" as="geometry">
            <mxPoint x="360" y="200" as="sourcePoint" />
            <mxPoint x="610" y="200" as="targetPoint" />
          </mxGeometry>
        </mxCell>
        <mxCell id="rsh4wRF1unET1UeAmr_m-4" value="" style="endArrow=none;html=1;rounded=0;strokeColor=#FFFFFF;strokeWidth=3;fontSize=18;fontColor=#000000;" parent="rsh4wRF1unET1UeAmr_m-1" edge="1">
          <mxGeometry width="50" height="50" relative="1" as="geometry">
            <mxPoint x="195.38999999999987" y="440.19" as="sourcePoint" />
            <mxPoint x="765.39" y="440" as="targetPoint" />
          </mxGeometry>
        </mxCell>
        <mxCell id="rsh4wRF1unET1UeAmr_m-5" value="UI" style="text;html=1;strokeColor=none;fillColor=none;align=center;verticalAlign=middle;whiteSpace=wrap;rounded=0;strokeWidth=4;fontSize=40;fontColor=#FFFFFF;" parent="rsh4wRF1unET1UeAmr_m-1" vertex="1">
          <mxGeometry x="450.39" y="130" width="60" height="30" as="geometry" />
        </mxCell>
        <mxCell id="rsh4wRF1unET1UeAmr_m-6" value="Service" style="text;html=1;strokeColor=none;fillColor=none;align=center;verticalAlign=middle;whiteSpace=wrap;rounded=0;strokeWidth=4;fontSize=40;fontColor=#FFFFFF;" parent="rsh4wRF1unET1UeAmr_m-1" vertex="1">
          <mxGeometry x="450.39" y="239.99999999999994" width="60" height="30" as="geometry" />
        </mxCell>
        <mxCell id="rsh4wRF1unET1UeAmr_m-7" value="Unit" style="text;html=1;strokeColor=none;fillColor=none;align=center;verticalAlign=middle;whiteSpace=wrap;rounded=0;strokeWidth=4;fontSize=40;fontColor=#FFFFFF;" parent="rsh4wRF1unET1UeAmr_m-1" vertex="1">
          <mxGeometry x="450.39" y="480" width="60" height="30" as="geometry" />
        </mxCell>
        <mxCell id="rsh4wRF1unET1UeAmr_m-8" value="" style="endArrow=classic;startArrow=classic;html=1;rounded=0;strokeColor=#00A3E0;strokeWidth=3;fontSize=18;fontColor=#FFFFFF;" parent="rsh4wRF1unET1UeAmr_m-1" edge="1">
          <mxGeometry width="50" height="50" relative="1" as="geometry">
            <mxPoint x="140" y="560" as="sourcePoint" />
            <mxPoint x="140" y="80" as="targetPoint" />
          </mxGeometry>
        </mxCell>
        <mxCell id="rsh4wRF1unET1UeAmr_m-9" value="" style="endArrow=classic;startArrow=classic;html=1;rounded=0;strokeColor=#00A3E0;strokeWidth=3;fontSize=18;fontColor=#FFFFFF;" parent="rsh4wRF1unET1UeAmr_m-1" edge="1">
          <mxGeometry width="50" height="50" relative="1" as="geometry">
            <mxPoint x="820" y="559.54" as="sourcePoint" />
            <mxPoint x="820" y="79.53999999999999" as="targetPoint" />
          </mxGeometry>
        </mxCell>
        <mxCell id="rsh4wRF1unET1UeAmr_m-10" value="Slow" style="text;html=1;strokeColor=none;fillColor=none;align=center;verticalAlign=middle;whiteSpace=wrap;rounded=0;strokeWidth=4;fontSize=32;fontColor=#00A3E0;" parent="rsh4wRF1unET1UeAmr_m-1" vertex="1">
          <mxGeometry x="70" y="80" width="50" height="30" as="geometry" />
        </mxCell>
        <mxCell id="rsh4wRF1unET1UeAmr_m-11" value="Quick" style="text;html=1;strokeColor=none;fillColor=none;align=center;verticalAlign=middle;whiteSpace=wrap;rounded=0;strokeWidth=4;fontSize=32;fontColor=#00A3E0;" parent="rsh4wRF1unET1UeAmr_m-1" vertex="1">
          <mxGeometry x="60" y="530" width="60" height="30" as="geometry" />
        </mxCell>
        <mxCell id="rsh4wRF1unET1UeAmr_m-12" value="More Integration" style="text;html=1;strokeColor=none;fillColor=none;align=center;verticalAlign=middle;whiteSpace=wrap;rounded=0;strokeWidth=4;fontSize=32;fontColor=#00A3E0;" parent="rsh4wRF1unET1UeAmr_m-1" vertex="1">
          <mxGeometry x="840" y="80" width="140" height="30" as="geometry" />
        </mxCell>
        <mxCell id="rsh4wRF1unET1UeAmr_m-13" value="More Isolation" style="text;html=1;strokeColor=none;fillColor=none;align=center;verticalAlign=middle;whiteSpace=wrap;rounded=0;strokeWidth=4;fontSize=32;fontColor=#00A3E0;" parent="rsh4wRF1unET1UeAmr_m-1" vertex="1">
          <mxGeometry x="840" y="530" width="120" height="30" as="geometry" />
        </mxCell>
        <mxCell id="8QFbdqQPd63wZzk0SxKL-0" value="" style="endArrow=none;html=1;rounded=0;strokeColor=#FFFFFF;strokeWidth=3;fontSize=18;fontColor=#000000;" parent="rsh4wRF1unET1UeAmr_m-1" edge="1">
          <mxGeometry width="50" height="50" relative="1" as="geometry">
            <mxPoint x="279.9999999999999" y="319.31000000000006" as="sourcePoint" />
            <mxPoint x="660" y="319.12" as="targetPoint" />
          </mxGeometry>
        </mxCell>
        <mxCell id="8QFbdqQPd63wZzk0SxKL-1" value="Component" style="text;html=1;strokeColor=none;fillColor=none;align=center;verticalAlign=middle;whiteSpace=wrap;rounded=0;strokeWidth=4;fontSize=40;fontColor=#FFFFFF;" parent="rsh4wRF1unET1UeAmr_m-1" vertex="1">
          <mxGeometry x="450" y="360" width="60" height="30" as="geometry" />
        </mxCell>
      </root>
    </mxGraphModel>
  </diagram>
  <diagram name="test-tree" id="R2PGjRFp3UlC823uuaLg">
    <mxGraphModel dx="1180" dy="682" grid="1" gridSize="10" guides="1" tooltips="1" connect="1" arrows="1" fold="1" page="1" pageScale="1" pageWidth="1100" pageHeight="850" math="0" shadow="0">
      <root>
        <mxCell id="XoRHI6hWSIaGKSWyz43R-0" />
        <mxCell id="XoRHI6hWSIaGKSWyz43R-1" parent="XoRHI6hWSIaGKSWyz43R-0" />
        <mxCell id="G9klvIMooZPgHvGotg4e-0" value="" style="rounded=0;whiteSpace=wrap;html=1;fillColor=#00A3E0;strokeColor=#00A3E0;" parent="XoRHI6hWSIaGKSWyz43R-1" vertex="1">
          <mxGeometry x="400" y="440.89" width="160" height="119.11" as="geometry" />
        </mxCell>
        <mxCell id="XoRHI6hWSIaGKSWyz43R-2" value="" style="triangle;whiteSpace=wrap;html=1;rounded=0;strokeColor=#00A3E0;strokeWidth=4;fontSize=18;fontColor=#000000;fillColor=#00A3E0;rotation=-90;" parent="XoRHI6hWSIaGKSWyz43R-1" vertex="1">
          <mxGeometry x="299.84" y="19.9" width="358.57" height="480.51" as="geometry" />
        </mxCell>
        <mxCell id="XoRHI6hWSIaGKSWyz43R-3" value="" style="endArrow=none;html=1;rounded=0;strokeColor=#FFFFFF;strokeWidth=3;fontSize=40;fontColor=#000000;" parent="XoRHI6hWSIaGKSWyz43R-1" edge="1">
          <mxGeometry width="50" height="50" relative="1" as="geometry">
            <mxPoint x="360" y="200" as="sourcePoint" />
            <mxPoint x="610" y="200" as="targetPoint" />
          </mxGeometry>
        </mxCell>
        <mxCell id="XoRHI6hWSIaGKSWyz43R-4" value="" style="endArrow=none;html=1;rounded=0;strokeColor=#FFFFFF;strokeWidth=3;fontSize=18;fontColor=#000000;" parent="XoRHI6hWSIaGKSWyz43R-1" edge="1">
          <mxGeometry width="50" height="50" relative="1" as="geometry">
            <mxPoint x="220" y="440" as="sourcePoint" />
            <mxPoint x="730" y="440" as="targetPoint" />
          </mxGeometry>
        </mxCell>
        <mxCell id="XoRHI6hWSIaGKSWyz43R-5" value="UI" style="text;html=1;strokeColor=none;fillColor=none;align=center;verticalAlign=middle;whiteSpace=wrap;rounded=0;strokeWidth=4;fontSize=40;fontColor=#FFFFFF;" parent="XoRHI6hWSIaGKSWyz43R-1" vertex="1">
          <mxGeometry x="450.39" y="130" width="60" height="30" as="geometry" />
        </mxCell>
        <mxCell id="XoRHI6hWSIaGKSWyz43R-6" value="Service" style="text;html=1;strokeColor=none;fillColor=none;align=center;verticalAlign=middle;whiteSpace=wrap;rounded=0;strokeWidth=4;fontSize=40;fontColor=#FFFFFF;" parent="XoRHI6hWSIaGKSWyz43R-1" vertex="1">
          <mxGeometry x="450.39" y="239.99999999999994" width="60" height="30" as="geometry" />
        </mxCell>
        <mxCell id="XoRHI6hWSIaGKSWyz43R-7" value="Unit" style="text;html=1;strokeColor=none;fillColor=none;align=center;verticalAlign=middle;whiteSpace=wrap;rounded=0;strokeWidth=4;fontSize=40;fontColor=#FFFFFF;" parent="XoRHI6hWSIaGKSWyz43R-1" vertex="1">
          <mxGeometry x="449.13" y="480" width="60" height="30" as="geometry" />
        </mxCell>
        <mxCell id="XoRHI6hWSIaGKSWyz43R-8" value="" style="endArrow=classic;startArrow=classic;html=1;rounded=0;strokeColor=#00A3E0;strokeWidth=3;fontSize=18;fontColor=#FFFFFF;" parent="XoRHI6hWSIaGKSWyz43R-1" edge="1">
          <mxGeometry width="50" height="50" relative="1" as="geometry">
            <mxPoint x="220" y="560" as="sourcePoint" />
            <mxPoint x="220" y="80" as="targetPoint" />
          </mxGeometry>
        </mxCell>
        <mxCell id="XoRHI6hWSIaGKSWyz43R-9" value="" style="endArrow=classic;startArrow=classic;html=1;rounded=0;strokeColor=#00A3E0;strokeWidth=3;fontSize=18;fontColor=#FFFFFF;" parent="XoRHI6hWSIaGKSWyz43R-1" edge="1">
          <mxGeometry width="50" height="50" relative="1" as="geometry">
            <mxPoint x="741" y="559.54" as="sourcePoint" />
            <mxPoint x="741" y="79.53999999999999" as="targetPoint" />
          </mxGeometry>
        </mxCell>
        <mxCell id="XoRHI6hWSIaGKSWyz43R-10" value="Slow" style="text;html=1;strokeColor=none;fillColor=none;align=center;verticalAlign=middle;whiteSpace=wrap;rounded=0;strokeWidth=4;fontSize=32;fontColor=#00A3E0;" parent="XoRHI6hWSIaGKSWyz43R-1" vertex="1">
          <mxGeometry x="150" y="80" width="50" height="30" as="geometry" />
        </mxCell>
        <mxCell id="XoRHI6hWSIaGKSWyz43R-11" value="Quick" style="text;html=1;strokeColor=none;fillColor=none;align=center;verticalAlign=middle;whiteSpace=wrap;rounded=0;strokeWidth=4;fontSize=32;fontColor=#00A3E0;" parent="XoRHI6hWSIaGKSWyz43R-1" vertex="1">
          <mxGeometry x="140" y="530" width="60" height="30" as="geometry" />
        </mxCell>
        <mxCell id="XoRHI6hWSIaGKSWyz43R-12" value="More Integration" style="text;html=1;strokeColor=none;fillColor=none;align=center;verticalAlign=middle;whiteSpace=wrap;rounded=0;strokeWidth=4;fontSize=32;fontColor=#00A3E0;" parent="XoRHI6hWSIaGKSWyz43R-1" vertex="1">
          <mxGeometry x="761" y="80" width="140" height="30" as="geometry" />
        </mxCell>
        <mxCell id="XoRHI6hWSIaGKSWyz43R-13" value="More Isolation" style="text;html=1;strokeColor=none;fillColor=none;align=center;verticalAlign=middle;whiteSpace=wrap;rounded=0;strokeWidth=4;fontSize=32;fontColor=#00A3E0;" parent="XoRHI6hWSIaGKSWyz43R-1" vertex="1">
          <mxGeometry x="761" y="530" width="120" height="30" as="geometry" />
        </mxCell>
        <mxCell id="XoRHI6hWSIaGKSWyz43R-14" value="" style="endArrow=none;html=1;rounded=0;strokeColor=#FFFFFF;strokeWidth=3;fontSize=18;fontColor=#000000;" parent="XoRHI6hWSIaGKSWyz43R-1" edge="1">
          <mxGeometry width="50" height="50" relative="1" as="geometry">
            <mxPoint x="279.9999999999999" y="319.31000000000006" as="sourcePoint" />
            <mxPoint x="660" y="319.12" as="targetPoint" />
          </mxGeometry>
        </mxCell>
        <mxCell id="XoRHI6hWSIaGKSWyz43R-15" value="Component" style="text;html=1;strokeColor=none;fillColor=none;align=center;verticalAlign=middle;whiteSpace=wrap;rounded=0;strokeWidth=4;fontSize=40;fontColor=#FFFFFF;" parent="XoRHI6hWSIaGKSWyz43R-1" vertex="1">
          <mxGeometry x="450" y="360" width="60" height="30" as="geometry" />
        </mxCell>
      </root>
    </mxGraphModel>
  </diagram>
  <diagram id="TbNgK2Tml6UrlYZEGuXI" name="component-tests-scope">
    <mxGraphModel dx="1436" dy="846" grid="1" gridSize="10" guides="1" tooltips="1" connect="1" arrows="1" fold="1" page="1" pageScale="1" pageWidth="850" pageHeight="1100" math="0" shadow="0">
      <root>
        <mxCell id="0" />
        <mxCell id="1" parent="0" />
        <mxCell id="c_au22yQHTe_QG0xKYEN-19" style="edgeStyle=orthogonalEdgeStyle;rounded=0;orthogonalLoop=1;jettySize=auto;html=1;entryX=0.5;entryY=0;entryDx=0;entryDy=0;strokeColor=#00539F;strokeWidth=2;fontSize=16;fontColor=#00539F;exitX=0;exitY=0.5;exitDx=0;exitDy=0;" parent="1" source="c_au22yQHTe_QG0xKYEN-1" target="c_au22yQHTe_QG0xKYEN-9" edge="1">
          <mxGeometry relative="1" as="geometry" />
        </mxCell>
        <mxCell id="c_au22yQHTe_QG0xKYEN-20" style="edgeStyle=orthogonalEdgeStyle;rounded=0;orthogonalLoop=1;jettySize=auto;html=1;strokeColor=#00539F;strokeWidth=2;fontSize=16;fontColor=#00539F;exitX=1;exitY=0.5;exitDx=0;exitDy=0;" parent="1" source="c_au22yQHTe_QG0xKYEN-1" target="c_au22yQHTe_QG0xKYEN-2" edge="1">
          <mxGeometry relative="1" as="geometry" />
        </mxCell>
        <mxCell id="c_au22yQHTe_QG0xKYEN-1" value="&lt;span style=&quot;font-size: 30px;&quot;&gt;Service&lt;/span&gt;&lt;br&gt;&lt;font style=&quot;font-size: 16px;&quot;&gt;&lt;i&gt;Application/Business Logic&lt;/i&gt;&lt;/font&gt;" style="rounded=0;whiteSpace=wrap;html=1;fillColor=#00A3E0;strokeColor=none;fontColor=#FFFFFF;" parent="1" vertex="1">
          <mxGeometry x="280" y="200" width="240" height="80" as="geometry" />
        </mxCell>
        <mxCell id="c_au22yQHTe_QG0xKYEN-17" style="edgeStyle=orthogonalEdgeStyle;rounded=0;orthogonalLoop=1;jettySize=auto;html=1;entryX=1;entryY=0.5;entryDx=0;entryDy=0;strokeColor=#00539F;strokeWidth=2;fontSize=16;fontColor=#00539F;exitX=0.5;exitY=1;exitDx=0;exitDy=0;" parent="1" source="c_au22yQHTe_QG0xKYEN-2" target="c_au22yQHTe_QG0xKYEN-10" edge="1">
          <mxGeometry relative="1" as="geometry" />
        </mxCell>
        <mxCell id="c_au22yQHTe_QG0xKYEN-18" style="edgeStyle=orthogonalEdgeStyle;rounded=0;orthogonalLoop=1;jettySize=auto;html=1;entryX=1;entryY=0.5;entryDx=0;entryDy=0;strokeColor=#00539F;strokeWidth=2;fontSize=16;fontColor=#00539F;" parent="1" source="c_au22yQHTe_QG0xKYEN-2" target="c_au22yQHTe_QG0xKYEN-9" edge="1">
          <mxGeometry relative="1" as="geometry" />
        </mxCell>
        <mxCell id="c_au22yQHTe_QG0xKYEN-2" value="&lt;span style=&quot;font-size: 30px;&quot;&gt;Repository&lt;/span&gt;&lt;br&gt;&lt;font style=&quot;font-size: 16px;&quot;&gt;&lt;i&gt;Data Access&lt;/i&gt;&lt;/font&gt;" style="rounded=0;whiteSpace=wrap;html=1;fillColor=#00A3E0;strokeColor=none;fontColor=#FFFFFF;" parent="1" vertex="1">
          <mxGeometry x="440" y="320" width="240" height="80" as="geometry" />
        </mxCell>
        <mxCell id="c_au22yQHTe_QG0xKYEN-3" value="&lt;i style=&quot;&quot;&gt;&lt;font style=&quot;&quot;&gt;SQL Server&lt;br style=&quot;font-size: 20px;&quot;&gt;&lt;/font&gt;&lt;/i&gt;" style="shape=cylinder3;whiteSpace=wrap;html=1;boundedLbl=1;backgroundOutline=1;size=15;fontSize=20;fontColor=#FFFFFF;fillColor=#00A3E0;strokeColor=#00539F;" parent="1" vertex="1">
          <mxGeometry x="190" y="560" width="100" height="110" as="geometry" />
        </mxCell>
        <mxCell id="c_au22yQHTe_QG0xKYEN-12" style="edgeStyle=none;rounded=0;orthogonalLoop=1;jettySize=auto;html=1;entryX=0.5;entryY=0;entryDx=0;entryDy=0;strokeColor=#00539F;strokeWidth=2;fontSize=16;fontColor=#00539F;" parent="1" source="c_au22yQHTe_QG0xKYEN-6" target="c_au22yQHTe_QG0xKYEN-1" edge="1">
          <mxGeometry relative="1" as="geometry" />
        </mxCell>
        <mxCell id="c_au22yQHTe_QG0xKYEN-6" value="&lt;span style=&quot;font-size: 30px;&quot;&gt;Controller&lt;/span&gt;" style="rounded=0;whiteSpace=wrap;html=1;fillColor=#00A3E0;strokeColor=none;fontColor=#FFFFFF;" parent="1" vertex="1">
          <mxGeometry x="280" y="80" width="240" height="80" as="geometry" />
        </mxCell>
        <mxCell id="c_au22yQHTe_QG0xKYEN-9" value="&lt;span style=&quot;font-size: 30px;&quot;&gt;Aggregate/Entity&lt;/span&gt;" style="rounded=0;whiteSpace=wrap;html=1;fillColor=#00A3E0;strokeColor=none;fontColor=#FFFFFF;" parent="1" vertex="1">
          <mxGeometry x="120" y="320" width="240" height="80" as="geometry" />
        </mxCell>
        <mxCell id="c_au22yQHTe_QG0xKYEN-15" style="edgeStyle=none;rounded=0;orthogonalLoop=1;jettySize=auto;html=1;entryX=0.5;entryY=1;entryDx=0;entryDy=0;strokeColor=#00539F;strokeWidth=2;fontSize=16;fontColor=#00539F;" parent="1" source="c_au22yQHTe_QG0xKYEN-10" target="c_au22yQHTe_QG0xKYEN-9" edge="1">
          <mxGeometry relative="1" as="geometry" />
        </mxCell>
        <mxCell id="c_au22yQHTe_QG0xKYEN-16" style="edgeStyle=none;rounded=0;orthogonalLoop=1;jettySize=auto;html=1;strokeColor=#00539F;strokeWidth=2;fontSize=16;fontColor=#00539F;" parent="1" source="c_au22yQHTe_QG0xKYEN-10" target="c_au22yQHTe_QG0xKYEN-3" edge="1">
          <mxGeometry relative="1" as="geometry" />
        </mxCell>
        <mxCell id="c_au22yQHTe_QG0xKYEN-10" value="&lt;span style=&quot;font-size: 30px;&quot;&gt;DbContext&lt;/span&gt;&lt;br&gt;&lt;font style=&quot;font-size: 16px;&quot;&gt;&lt;i&gt;Entity Framework&lt;/i&gt;&lt;/font&gt;" style="rounded=0;whiteSpace=wrap;html=1;fillColor=#00A3E0;strokeColor=none;fontColor=#FFFFFF;" parent="1" vertex="1">
          <mxGeometry x="120" y="440" width="240" height="80" as="geometry" />
        </mxCell>
      </root>
    </mxGraphModel>
  </diagram>
  <diagram name="specflow-component-tests-scope" id="W-vyFKhNjUWdTEl1lNQU">
    <mxGraphModel dx="1436" dy="846" grid="1" gridSize="10" guides="1" tooltips="1" connect="1" arrows="1" fold="1" page="1" pageScale="1" pageWidth="850" pageHeight="1100" math="0" shadow="0">
      <root>
        <mxCell id="mqW0I6kgr36iqE8_0zUW-0" />
        <mxCell id="mqW0I6kgr36iqE8_0zUW-1" parent="mqW0I6kgr36iqE8_0zUW-0" />
        <mxCell id="mqW0I6kgr36iqE8_0zUW-2" style="edgeStyle=orthogonalEdgeStyle;rounded=0;orthogonalLoop=1;jettySize=auto;html=1;entryX=0.5;entryY=0;entryDx=0;entryDy=0;strokeColor=#00539F;strokeWidth=2;fontSize=16;fontColor=#00539F;exitX=0;exitY=0.5;exitDx=0;exitDy=0;" parent="mqW0I6kgr36iqE8_0zUW-1" source="mqW0I6kgr36iqE8_0zUW-4" target="mqW0I6kgr36iqE8_0zUW-11" edge="1">
          <mxGeometry relative="1" as="geometry" />
        </mxCell>
        <mxCell id="mqW0I6kgr36iqE8_0zUW-3" style="edgeStyle=orthogonalEdgeStyle;rounded=0;orthogonalLoop=1;jettySize=auto;html=1;strokeColor=#00539F;strokeWidth=2;fontSize=16;fontColor=#00539F;exitX=1;exitY=0.5;exitDx=0;exitDy=0;" parent="mqW0I6kgr36iqE8_0zUW-1" source="mqW0I6kgr36iqE8_0zUW-4" target="mqW0I6kgr36iqE8_0zUW-7" edge="1">
          <mxGeometry relative="1" as="geometry" />
        </mxCell>
        <mxCell id="mqW0I6kgr36iqE8_0zUW-4" value="&lt;span style=&quot;font-size: 30px;&quot;&gt;Service&lt;/span&gt;&lt;br&gt;&lt;font style=&quot;font-size: 16px;&quot;&gt;&lt;i&gt;Application/Business Logic&lt;/i&gt;&lt;/font&gt;" style="rounded=0;whiteSpace=wrap;html=1;fillColor=#00A3E0;strokeColor=none;fontColor=#FFFFFF;" parent="mqW0I6kgr36iqE8_0zUW-1" vertex="1">
          <mxGeometry x="280" y="200" width="240" height="80" as="geometry" />
        </mxCell>
        <mxCell id="mqW0I6kgr36iqE8_0zUW-5" style="edgeStyle=orthogonalEdgeStyle;rounded=0;orthogonalLoop=1;jettySize=auto;html=1;entryX=1;entryY=0.5;entryDx=0;entryDy=0;strokeColor=#00539F;strokeWidth=2;fontSize=16;fontColor=#00539F;exitX=0.5;exitY=1;exitDx=0;exitDy=0;" parent="mqW0I6kgr36iqE8_0zUW-1" source="mqW0I6kgr36iqE8_0zUW-7" target="mqW0I6kgr36iqE8_0zUW-14" edge="1">
          <mxGeometry relative="1" as="geometry" />
        </mxCell>
        <mxCell id="mqW0I6kgr36iqE8_0zUW-6" style="edgeStyle=orthogonalEdgeStyle;rounded=0;orthogonalLoop=1;jettySize=auto;html=1;entryX=1;entryY=0.5;entryDx=0;entryDy=0;strokeColor=#00539F;strokeWidth=2;fontSize=16;fontColor=#00539F;" parent="mqW0I6kgr36iqE8_0zUW-1" source="mqW0I6kgr36iqE8_0zUW-7" target="mqW0I6kgr36iqE8_0zUW-11" edge="1">
          <mxGeometry relative="1" as="geometry" />
        </mxCell>
        <mxCell id="mqW0I6kgr36iqE8_0zUW-7" value="&lt;span style=&quot;font-size: 30px;&quot;&gt;Repository&lt;/span&gt;&lt;br&gt;&lt;font style=&quot;font-size: 16px;&quot;&gt;&lt;i&gt;Data Access&lt;/i&gt;&lt;/font&gt;" style="rounded=0;whiteSpace=wrap;html=1;fillColor=#00A3E0;strokeColor=none;fontColor=#FFFFFF;" parent="mqW0I6kgr36iqE8_0zUW-1" vertex="1">
          <mxGeometry x="440" y="320" width="240" height="80" as="geometry" />
        </mxCell>
        <mxCell id="mqW0I6kgr36iqE8_0zUW-8" value="&lt;i style=&quot;&quot;&gt;&lt;font style=&quot;&quot;&gt;SQL Server &lt;br&gt;&lt;font style=&quot;font-size: 18px;&quot;&gt;(in-memory)&lt;/font&gt;&lt;br style=&quot;font-size: 20px;&quot;&gt;&lt;/font&gt;&lt;/i&gt;" style="shape=cylinder3;whiteSpace=wrap;html=1;boundedLbl=1;backgroundOutline=1;size=15;fontSize=20;fontColor=#FFFFFF;fillColor=#00A3E0;strokeColor=#00539F;" parent="mqW0I6kgr36iqE8_0zUW-1" vertex="1">
          <mxGeometry x="190" y="560" width="100" height="110" as="geometry" />
        </mxCell>
        <mxCell id="mqW0I6kgr36iqE8_0zUW-9" style="edgeStyle=none;rounded=0;orthogonalLoop=1;jettySize=auto;html=1;entryX=0.5;entryY=0;entryDx=0;entryDy=0;strokeColor=#00539F;strokeWidth=2;fontSize=16;fontColor=#00539F;" parent="mqW0I6kgr36iqE8_0zUW-1" source="mqW0I6kgr36iqE8_0zUW-10" target="mqW0I6kgr36iqE8_0zUW-4" edge="1">
          <mxGeometry relative="1" as="geometry" />
        </mxCell>
        <mxCell id="mqW0I6kgr36iqE8_0zUW-10" value="&lt;span style=&quot;font-size: 30px;&quot;&gt;Controller&lt;/span&gt;" style="rounded=0;whiteSpace=wrap;html=1;fillColor=#00A3E0;strokeColor=none;fontColor=#FFFFFF;" parent="mqW0I6kgr36iqE8_0zUW-1" vertex="1">
          <mxGeometry x="280" y="80" width="240" height="80" as="geometry" />
        </mxCell>
        <mxCell id="mqW0I6kgr36iqE8_0zUW-11" value="&lt;span style=&quot;font-size: 30px;&quot;&gt;Aggregate/Entity&lt;/span&gt;" style="rounded=0;whiteSpace=wrap;html=1;fillColor=#00A3E0;strokeColor=none;fontColor=#FFFFFF;" parent="mqW0I6kgr36iqE8_0zUW-1" vertex="1">
          <mxGeometry x="120" y="320" width="240" height="80" as="geometry" />
        </mxCell>
        <mxCell id="mqW0I6kgr36iqE8_0zUW-12" style="edgeStyle=none;rounded=0;orthogonalLoop=1;jettySize=auto;html=1;entryX=0.5;entryY=1;entryDx=0;entryDy=0;strokeColor=#00539F;strokeWidth=2;fontSize=16;fontColor=#00539F;" parent="mqW0I6kgr36iqE8_0zUW-1" source="mqW0I6kgr36iqE8_0zUW-14" target="mqW0I6kgr36iqE8_0zUW-11" edge="1">
          <mxGeometry relative="1" as="geometry" />
        </mxCell>
        <mxCell id="mqW0I6kgr36iqE8_0zUW-13" style="edgeStyle=none;rounded=0;orthogonalLoop=1;jettySize=auto;html=1;strokeColor=#00539F;strokeWidth=2;fontSize=16;fontColor=#00539F;" parent="mqW0I6kgr36iqE8_0zUW-1" source="mqW0I6kgr36iqE8_0zUW-14" target="mqW0I6kgr36iqE8_0zUW-8" edge="1">
          <mxGeometry relative="1" as="geometry" />
        </mxCell>
        <mxCell id="mqW0I6kgr36iqE8_0zUW-14" value="&lt;span style=&quot;font-size: 30px;&quot;&gt;DbContext&lt;/span&gt;&lt;br&gt;&lt;font style=&quot;font-size: 16px;&quot;&gt;&lt;i&gt;Entity Framework&lt;/i&gt;&lt;/font&gt;" style="rounded=0;whiteSpace=wrap;html=1;fillColor=#00A3E0;strokeColor=none;fontColor=#FFFFFF;" parent="mqW0I6kgr36iqE8_0zUW-1" vertex="1">
          <mxGeometry x="120" y="440" width="240" height="80" as="geometry" />
        </mxCell>
        <mxCell id="mqW0I6kgr36iqE8_0zUW-15" value="" style="rounded=1;whiteSpace=wrap;html=1;fontSize=18;opacity=40;fillColor=#f8cecc;strokeColor=#b85450;" parent="mqW0I6kgr36iqE8_0zUW-1" vertex="1">
          <mxGeometry x="100" y="180" width="600" height="510" as="geometry" />
        </mxCell>
      </root>
    </mxGraphModel>
  </diagram>
  <diagram name="multiple-controllers" id="cUW2sjWae9UvL0shcr48">
    <mxGraphModel dx="1436" dy="846" grid="1" gridSize="10" guides="1" tooltips="1" connect="1" arrows="1" fold="1" page="1" pageScale="1" pageWidth="850" pageHeight="1100" math="0" shadow="0">
      <root>
        <mxCell id="JcWdJh0nuaOXOXesWTIX-0" />
        <mxCell id="JcWdJh0nuaOXOXesWTIX-1" parent="JcWdJh0nuaOXOXesWTIX-0" />
        <mxCell id="JcWdJh0nuaOXOXesWTIX-4" value="&lt;span style=&quot;font-size: 30px;&quot;&gt;Service&lt;/span&gt;&lt;br&gt;&lt;font style=&quot;font-size: 16px;&quot;&gt;&lt;i&gt;Application/Business Logic&lt;/i&gt;&lt;/font&gt;" style="rounded=0;whiteSpace=wrap;html=1;fillColor=#00A3E0;strokeColor=none;fontColor=#FFFFFF;" parent="JcWdJh0nuaOXOXesWTIX-1" vertex="1">
          <mxGeometry x="220" y="200" width="240" height="80" as="geometry" />
        </mxCell>
        <mxCell id="JcWdJh0nuaOXOXesWTIX-9" style="edgeStyle=none;rounded=0;orthogonalLoop=1;jettySize=auto;html=1;entryX=0.5;entryY=0;entryDx=0;entryDy=0;strokeColor=#00539F;strokeWidth=2;fontSize=16;fontColor=#00539F;" parent="JcWdJh0nuaOXOXesWTIX-1" source="Akbb7VrJAcp6sntObwN4-3" target="JcWdJh0nuaOXOXesWTIX-4" edge="1">
          <mxGeometry relative="1" as="geometry">
            <mxPoint x="400" y="160" as="sourcePoint" />
          </mxGeometry>
        </mxCell>
        <mxCell id="Akbb7VrJAcp6sntObwN4-0" value="&lt;span style=&quot;font-size: 30px;&quot;&gt;REST v1&lt;/span&gt;&lt;br&gt;&lt;i style=&quot;&quot;&gt;&lt;font style=&quot;font-size: 16px;&quot;&gt;Controller&lt;/font&gt;&lt;/i&gt;" style="rounded=0;whiteSpace=wrap;html=1;fillColor=#00A3E0;strokeColor=none;fontColor=#FFFFFF;" parent="JcWdJh0nuaOXOXesWTIX-1" vertex="1">
          <mxGeometry x="80" y="80" width="160" height="80" as="geometry" />
        </mxCell>
        <mxCell id="Akbb7VrJAcp6sntObwN4-3" value="&lt;span style=&quot;font-size: 30px;&quot;&gt;REST v2&lt;/span&gt;&lt;br&gt;&lt;i style=&quot;&quot;&gt;&lt;font style=&quot;font-size: 16px;&quot;&gt;Controller&lt;/font&gt;&lt;/i&gt;" style="rounded=0;whiteSpace=wrap;html=1;fillColor=#00A3E0;strokeColor=none;fontColor=#FFFFFF;" parent="JcWdJh0nuaOXOXesWTIX-1" vertex="1">
          <mxGeometry x="260" y="80" width="160" height="80" as="geometry" />
        </mxCell>
        <mxCell id="Akbb7VrJAcp6sntObwN4-4" value="&lt;span style=&quot;font-size: 30px;&quot;&gt;gRPC v2&lt;/span&gt;&lt;br&gt;&lt;i style=&quot;&quot;&gt;&lt;font style=&quot;font-size: 16px;&quot;&gt;Controller&lt;/font&gt;&lt;/i&gt;" style="rounded=0;whiteSpace=wrap;html=1;fillColor=#00A3E0;strokeColor=none;fontColor=#FFFFFF;" parent="JcWdJh0nuaOXOXesWTIX-1" vertex="1">
          <mxGeometry x="440" y="80" width="160" height="80" as="geometry" />
        </mxCell>
        <mxCell id="Akbb7VrJAcp6sntObwN4-5" style="edgeStyle=none;rounded=0;orthogonalLoop=1;jettySize=auto;html=1;strokeColor=#00539F;strokeWidth=2;fontSize=16;fontColor=#00539F;" parent="JcWdJh0nuaOXOXesWTIX-1" source="Akbb7VrJAcp6sntObwN4-4" target="JcWdJh0nuaOXOXesWTIX-4" edge="1">
          <mxGeometry relative="1" as="geometry">
            <mxPoint x="350" y="170" as="sourcePoint" />
            <mxPoint x="350" y="210" as="targetPoint" />
          </mxGeometry>
        </mxCell>
        <mxCell id="Akbb7VrJAcp6sntObwN4-6" style="edgeStyle=none;rounded=0;orthogonalLoop=1;jettySize=auto;html=1;strokeColor=#00539F;strokeWidth=2;fontSize=16;fontColor=#00539F;" parent="JcWdJh0nuaOXOXesWTIX-1" source="Akbb7VrJAcp6sntObwN4-0" target="JcWdJh0nuaOXOXesWTIX-4" edge="1">
          <mxGeometry relative="1" as="geometry">
            <mxPoint x="470" y="170" as="sourcePoint" />
            <mxPoint x="410" y="210" as="targetPoint" />
          </mxGeometry>
        </mxCell>
      </root>
    </mxGraphModel>
  </diagram>
</mxfile>
